<?xml version="1.0" encoding="UTF-8"?>
<!DOCTYPE svg PUBLIC "-//W3C//DTD SVG 1.1//EN" "http://www.w3.org/Graphics/SVG/1.1/DTD/svg11.dtd">
<svg xmlns="http://www.w3.org/2000/svg" version="1.1" width="274px" height="274px" style="shape-rendering:geometricPrecision; text-rendering:geometricPrecision; image-rendering:optimizeQuality; fill-rule:evenodd; clip-rule:evenodd" xmlns:xlink="http://www.w3.org/1999/xlink">
<g><path style="opacity:0.99" fill="#5d779b" d="M 135.5,-0.5 C 135.833,-0.5 136.167,-0.5 136.5,-0.5C 181.274,25.7258 226.274,51.7258 271.5,77.5C 272.667,133.497 272.833,189.497 272,245.5C 264.222,250.304 256.388,254.971 248.5,259.5C 248.831,203.595 248.498,147.762 247.5,92C 210.354,70.6803 173.187,49.5137 136,28.5C 99.1464,49.347 62.313,70.347 25.5,91.5C 24.7025,91.9569 24.3691,92.6236 24.5,93.5C 24.5,148.833 24.5,204.167 24.5,259.5C 24.1667,259.5 23.8333,259.5 23.5,259.5C 23.8333,203.496 23.5,147.496 22.5,91.5C 15.2095,86.6889 7.54282,82.6889 -0.5,79.5C -0.5,79.1667 -0.5,78.8333 -0.5,78.5C 44.8687,52.1516 90.2021,25.8183 135.5,-0.5 Z"/></g>
<g><path style="opacity:0.999" fill="#ebeff6" d="M 248.5,259.5 C 240.631,263.93 232.964,268.597 225.5,273.5C 224.833,273.5 224.167,273.5 223.5,273.5C 223.5,273.167 223.5,272.833 223.5,272.5C 223.667,217.166 223.5,161.832 223,106.5C 194.384,89.4427 165.551,72.776 136.5,56.5C 106.927,72.7387 77.5935,89.4054 48.5,106.5C 40.527,102.179 32.527,97.8458 24.5,93.5C 24.3691,92.6236 24.7025,91.9569 25.5,91.5C 62.313,70.347 99.1464,49.347 136,28.5C 173.187,49.5137 210.354,70.6803 247.5,92C 248.498,147.762 248.831,203.595 248.5,259.5 Z"/></g>
<g><path style="opacity:0.999" fill="#a3b7d6" d="M 136.5,56.5 C 165.551,72.776 194.384,89.4427 223,106.5C 223.5,161.832 223.667,217.166 223.5,272.5C 209.032,264.766 194.699,256.766 180.5,248.5C 183.933,245.941 187.599,243.608 191.5,241.5C 192.497,234.866 192.83,228.2 192.5,221.5C 184.836,216.332 176.836,211.665 168.5,207.5C 175.936,202.608 183.603,197.941 191.5,193.5C 192.497,186.866 192.83,180.2 192.5,173.5C 184.5,168.5 176.5,163.5 168.5,158.5C 176.302,154.432 183.968,150.098 191.5,145.5C 192.819,138.344 192.819,131.344 191.5,124.5C 173.167,113.833 154.833,103.167 136.5,92.5C 136.5,80.5 136.5,68.5 136.5,56.5 Z"/></g>
<g><path style="opacity:0.999" fill="#c7d4e6" d="M 136.5,56.5 C 136.5,68.5 136.5,80.5 136.5,92.5C 117.301,103.263 98.301,114.263 79.5,125.5C 79.17,132.2 79.5033,138.866 80.5,145.5C 88.3561,149.592 96.0228,153.925 103.5,158.5C 96.004,163.749 88.3374,168.749 80.5,173.5C 80.17,180.2 80.5033,186.866 81.5,193.5C 89.397,197.941 97.0636,202.608 104.5,207.5C 96.1639,211.665 88.1639,216.332 80.5,221.5C 80.17,228.2 80.5033,234.866 81.5,241.5C 85.4005,243.608 89.0672,245.941 92.5,248.5C 77.6672,256.079 63.3338,264.413 49.5,273.5C 49.1667,273.5 48.8333,273.5 48.5,273.5C 48.5,217.833 48.5,162.167 48.5,106.5C 77.5935,89.4054 106.927,72.7387 136.5,56.5 Z"/></g>
<g><path style="opacity:0.977" fill="#334765" d="M -0.5,79.5 C 7.54282,82.6889 15.2095,86.6889 22.5,91.5C 23.5,147.496 23.8333,203.496 23.5,259.5C 15.5,254.833 7.5,250.167 -0.5,245.5C -0.5,190.167 -0.5,134.833 -0.5,79.5 Z"/></g>
<g><path style="opacity:0.994" fill="#a3b7d6" d="M 24.5,93.5 C 32.527,97.8458 40.527,102.179 48.5,106.5C 48.5,162.167 48.5,217.833 48.5,273.5C 48.1667,273.5 47.8333,273.5 47.5,273.5C 39.6667,269.084 32.0001,264.418 24.5,259.5C 24.5,204.167 24.5,148.833 24.5,93.5 Z"/></g>
<g><path style="opacity:1" fill="#b2f1fe" d="M 136.5,92.5 C 154.833,103.167 173.167,113.833 191.5,124.5C 173.897,134.974 156.23,145.474 138.5,156C 137.552,156.483 136.552,156.649 135.5,156.5C 117.085,145.628 98.4183,135.294 79.5,125.5C 98.301,114.263 117.301,103.263 136.5,92.5 Z"/></g>
<g><path style="opacity:1" fill="#20cef2" d="M 79.5,125.5 C 98.4183,135.294 117.085,145.628 135.5,156.5C 135.5,163.167 135.5,169.833 135.5,176.5C 124.594,170.928 113.928,164.928 103.5,158.5C 96.0228,153.925 88.3561,149.592 80.5,145.5C 79.5033,138.866 79.17,132.2 79.5,125.5 Z"/></g>
<g><path style="opacity:1" fill="#8ae6f9" d="M 191.5,124.5 C 192.819,131.344 192.819,138.344 191.5,145.5C 183.968,150.098 176.302,154.432 168.5,158.5C 157.585,165.443 146.585,171.443 135.5,176.5C 135.5,169.833 135.5,163.167 135.5,156.5C 136.552,156.649 137.552,156.483 138.5,156C 156.23,145.474 173.897,134.974 191.5,124.5 Z"/></g>
<g><path style="opacity:1" fill="#b2f1fe" d="M 103.5,158.5 C 113.928,164.928 124.594,170.928 135.5,176.5C 146.585,171.443 157.585,165.443 168.5,158.5C 176.5,163.5 184.5,168.5 192.5,173.5C 173.833,183.833 155.167,194.167 136.5,204.5C 117.833,194.167 99.1667,183.833 80.5,173.5C 88.3374,168.749 96.004,163.749 103.5,158.5 Z"/></g>
<g><path style="opacity:1" fill="#1dcef2" d="M 80.5,173.5 C 99.1667,183.833 117.833,194.167 136.5,204.5C 136.824,211.354 136.491,218.021 135.5,224.5C 125.3,218.567 114.967,212.9 104.5,207.5C 97.0636,202.608 89.397,197.941 81.5,193.5C 80.5033,186.866 80.17,180.2 80.5,173.5 Z"/></g>
<g><path style="opacity:1" fill="#8ae7f9" d="M 192.5,173.5 C 192.83,180.2 192.497,186.866 191.5,193.5C 183.603,197.941 175.936,202.608 168.5,207.5C 157.897,212.803 147.564,218.636 137.5,225C 136.563,225.692 135.897,225.525 135.5,224.5C 136.491,218.021 136.824,211.354 136.5,204.5C 155.167,194.167 173.833,183.833 192.5,173.5 Z"/></g>
<g><path style="opacity:1" fill="#b2f1fe" d="M 104.5,207.5 C 114.967,212.9 125.3,218.567 135.5,224.5C 135.897,225.525 136.563,225.692 137.5,225C 147.564,218.636 157.897,212.803 168.5,207.5C 176.836,211.665 184.836,216.332 192.5,221.5C 173.833,231.833 155.167,242.167 136.5,252.5C 117.833,242.167 99.1667,231.833 80.5,221.5C 88.1639,216.332 96.1639,211.665 104.5,207.5 Z"/></g>
<g><path style="opacity:1" fill="#1ecef2" d="M 80.5,221.5 C 99.1667,231.833 117.833,242.167 136.5,252.5C 136.5,259.5 136.5,266.5 136.5,273.5C 136.167,273.5 135.833,273.5 135.5,273.5C 121.366,264.929 107.033,256.596 92.5,248.5C 89.0672,245.941 85.4005,243.608 81.5,241.5C 80.5033,234.866 80.17,228.2 80.5,221.5 Z"/></g>
<g><path style="opacity:1" fill="#8ae7fa" d="M 192.5,221.5 C 192.83,228.2 192.497,234.866 191.5,241.5C 187.599,243.608 183.933,245.941 180.5,248.5C 165.967,256.596 151.634,264.929 137.5,273.5C 137.167,273.5 136.833,273.5 136.5,273.5C 136.5,266.5 136.5,259.5 136.5,252.5C 155.167,242.167 173.833,231.833 192.5,221.5 Z"/></g>
</svg>
