<?xml version="1.0" encoding="UTF-8"?>
<svg version="1.1" xmlns="http://www.w3.org/2000/svg" width="300" height="359">
<path d="M0 0 C4.5072934 1.50243113 7.72228391 2.81355899 11.7265625 5.1328125 C12.82637451 5.76590332 13.92618652 6.39899414 15.05932617 7.05126953 C16.24789795 7.74248923 17.4364555 8.43373339 18.625 9.125 C19.87116208 9.84417423 21.1176692 10.56275087 22.36450195 11.28076172 C24.95515993 12.77333462 27.54431646 14.26846174 30.13232422 15.765625 C35.56001484 18.90374478 41.0012721 22.0180829 46.44464111 25.12890625 C47.61061342 25.79529281 48.77642455 26.46196146 49.94207764 27.12890625 C58.18379758 31.84419407 66.45594224 36.50240186 74.75 41.125 C83.86073299 46.20483659 92.90272192 51.39096219 101.89355469 56.68017578 C111.87806881 62.54775765 121.94093356 68.25196204 132 74 C132 97.1 132 120.2 132 144 C128.50527389 142.60210955 125.55006512 141.28283805 122.32421875 139.453125 C121.42662842 138.94539551 120.52903809 138.43766602 119.60424805 137.91455078 C118.64172119 137.36524902 117.67919434 136.81594727 116.6875 136.25 C115.67276611 135.67362793 114.65803223 135.09725586 113.61254883 134.50341797 C104.45587343 129.288936 95.35546075 123.97945231 86.26171875 118.65625 C75.53861451 112.38434295 64.76415106 106.20108702 54 100 C54 110.56 54 121.12 54 132 C55.65 132.66 57.3 133.32 59 134 C60.89559191 134.99867405 62.77489583 136.02862097 64.640625 137.08203125 C66.24744141 137.98598633 66.24744141 137.98598633 67.88671875 138.90820312 C68.99660156 139.53662109 70.10648437 140.16503906 71.25 140.8125 C73.44264733 142.04828533 75.63535464 143.28396424 77.828125 144.51953125 C78.7965332 145.06714111 79.76494141 145.61475098 80.76269531 146.17895508 C84.83290141 148.46852275 88.91770445 150.73205803 93 153 C93 173.13 93 193.26 93 214 C88.51793136 212.50597712 85.42085399 211.25712881 81.48046875 208.91796875 C79.94616211 208.01401367 79.94616211 208.01401367 78.38085938 207.09179688 C77.32705078 206.46337891 76.27324219 205.83496094 75.1875 205.1875 C73.09816855 203.9509569 71.00833241 202.71526611 68.91796875 201.48046875 C67.53774536 200.65905396 67.53774536 200.65905396 66.12963867 199.82104492 C62.12030908 197.48813367 58.05492141 195.25273412 54 193 C54.33 206.2 54.66 219.4 55 233 C60.445 230.525 60.445 230.525 66 228 C72.38193802 225.82080165 78.27430968 224.38295746 85 224 C85.68320313 223.95875 86.36640625 223.9175 87.0703125 223.875 C105.72749329 223.32423452 121.76097981 229.50654971 135.8671875 241.421875 C148.07264103 253.07084889 156.7456372 268.6866932 157.30078125 285.7421875 C157.31521415 287.78641112 157.31896101 289.83073564 157.3125 291.875 C157.32861328 292.88691406 157.34472656 293.89882813 157.36132812 294.94140625 C157.36777225 305.0071263 155.01489652 313.96564967 150.5 322.9375 C150.16033203 323.61280762 149.82066406 324.28811523 149.47070312 324.98388672 C142.62421577 337.89885151 131.87013587 346.64742505 119.0625 353.25 C118.40612549 353.59192383 117.74975098 353.93384766 117.07348633 354.28613281 C103.35781014 361.08550176 83.2748447 361.75457629 68.77734375 357.15625 C49.00737419 348.92571415 34.59411221 335.93102618 26 316 C24.07395765 310.94132845 22.91477764 306.08773144 22.42578125 300.6953125 C22.34368408 299.81117676 22.26158691 298.92704102 22.17700195 298.01611328 C22.11859131 297.3507959 22.06018066 296.68547852 22 296 C21.10692139 296.54527344 21.10692139 296.54527344 20.19580078 297.1015625 C17.50828767 298.738946 14.81672106 300.36954413 12.125 302 C11.18785156 302.57234375 10.25070313 303.1446875 9.28515625 303.734375 C8.38925781 304.27578125 7.49335938 304.8171875 6.5703125 305.375 C5.32918701 306.12910156 5.32918701 306.12910156 4.06298828 306.8984375 C2 308 2 308 0 308 C0 206.36 0 104.72 0 0 Z " fill="#FD9100" transform="translate(143,0)"/>
<path d="M0 0 C0 101.64 0 203.28 0 308 C-4.06156306 306.98460924 -7.17009052 305.37460762 -10.75 303.3125 C-11.42957764 302.92529785 -12.10915527 302.5380957 -12.80932617 302.13916016 C-15.21032987 300.76647846 -17.60552802 299.38404356 -20 298 C-21.44463623 297.16686279 -21.44463623 297.16686279 -22.91845703 296.31689453 C-26.05230498 294.50720769 -29.18304291 292.69226845 -32.3125 290.875 C-33.3015332 290.30177002 -34.29056641 289.72854004 -35.30957031 289.13793945 C-36.75928223 288.29235474 -36.75928223 288.29235474 -38.23828125 287.4296875 C-39.08430908 286.93710449 -39.93033691 286.44452148 -40.80200195 285.93701172 C-42.38501099 284.97819092 -42.38501099 284.97819092 -44 284 C-44.88263519 283.62998651 -45.76527039 283.25997301 -46.6746521 282.87874699 C-50.05174976 281.23482673 -52.39752413 279.72558833 -55 277 C-56.63744678 271.33707186 -56.39428567 265.80920527 -56.2487793 259.95727539 C-56.24567435 258.2124247 -56.24742235 256.46755964 -56.25364685 254.72271729 C-56.25679836 249.99681006 -56.19221724 245.27398487 -56.11533332 240.54879308 C-56.04648345 235.60686149 -56.04010084 230.6648561 -56.02705383 225.72251892 C-55.99288841 216.36871479 -55.90265673 207.01632791 -55.79220945 197.66314739 C-55.66918008 187.01284425 -55.60875835 176.36247275 -55.55355966 165.71163571 C-55.43863629 143.80696664 -55.24520472 121.90357266 -55 100 C-58.74285891 102.13765203 -62.48557752 104.27554946 -66.22817993 106.41365051 C-67.49478596 107.13720432 -68.76142682 107.86069717 -70.02810669 108.5841217 C-92.81724726 121.56771444 -92.81724726 121.56771444 -115.4453125 134.828125 C-116.4657666 135.43567627 -117.4862207 136.04322754 -118.53759766 136.66918945 C-120.46948115 137.82236501 -122.39896789 138.97956816 -124.32568359 140.14135742 C-125.60306396 140.9047644 -125.60306396 140.9047644 -126.90625 141.68359375 C-127.65197266 142.13275146 -128.39769531 142.58190918 -129.16601562 143.04467773 C-131 144 -131 144 -133 144 C-133 120.9 -133 97.8 -133 74 C-123.76 68.72 -114.52 63.44 -105 58 C-99.4271421 54.80853117 -99.4271421 54.80853117 -93.85449219 51.61669922 C-84.01534189 45.9832724 -74.15362687 40.39449531 -64.25 34.875 C-56.1126592 30.33922277 -48.03499509 25.7146351 -40 21 C-31.43066303 15.97942197 -22.83267268 11.01378778 -14.1875 6.125 C-12.57584961 5.20460938 -12.57584961 5.20460938 -10.93164062 4.265625 C-9.93712891 3.70617187 -8.94261719 3.14671875 -7.91796875 2.5703125 C-7.03906982 2.07289551 -6.1601709 1.57547852 -5.25463867 1.06298828 C-3 -0 -3 -0 0 0 Z " fill="#F77D00" transform="translate(133,0)"/>
<path d="M0 0 C0.66 0.33 1.32 0.66 2 1 C2 14.2 2 27.4 2 41 C5.63 39.35 9.26 37.7 13 36 C19.38193802 33.82080165 25.27430968 32.38295746 32 32 C32.68320313 31.95875 33.36640625 31.9175 34.0703125 31.875 C52.72749329 31.32423452 68.76097981 37.50654971 82.8671875 49.421875 C95.07264103 61.07084889 103.7456372 76.6866932 104.30078125 93.7421875 C104.31521415 95.78641112 104.31896101 97.83073564 104.3125 99.875 C104.32861328 100.88691406 104.34472656 101.89882813 104.36132812 102.94140625 C104.36777225 113.0071263 102.01489652 121.96564967 97.5 130.9375 C97.16033203 131.61280762 96.82066406 132.28811523 96.47070312 132.98388672 C89.62421577 145.89885151 78.87013587 154.64742505 66.0625 161.25 C65.40612549 161.59192383 64.74975098 161.93384766 64.07348633 162.28613281 C50.35781014 169.08550176 30.2748447 169.75457629 15.77734375 165.15625 C-3.99902939 156.92304824 -18.39486174 143.9304418 -27 124 C-33.43083231 107.33488593 -31.67987144 89.28697318 -25 73 C-19.7150567 61.79907538 -11.76011921 52.56907204 -2 45 C-1.34 45 -0.68 45 0 45 C0 30.15 0 15.3 0 0 Z " fill="#414F65" transform="translate(196,192)"/>
<path d="M0 0 C3.1535693 1.26142772 5.85282156 2.37625476 8.7578125 3.99609375 C9.45729004 4.38418213 10.15676758 4.77227051 10.87744141 5.17211914 C12.40971757 6.03479428 13.94058704 6.89997164 15.47021484 7.76733398 C19.7448225 10.19081118 24.03306951 12.54733489 28.40625 14.7890625 C30.14599734 15.71323299 31.88558511 16.63770394 33.625 17.5625 C34.46047363 17.97234131 35.29594727 18.38218262 36.15673828 18.80444336 C38.4434332 20.04838422 40.21589149 21.10228354 42 23 C42.88832712 26.17419566 42.74815817 28.80676311 42 32 C40.75 34.1640625 40.75 34.1640625 39 35.625 C38.36964844 36.17542969 37.73929688 36.72585938 37.08984375 37.29296875 C36.05537109 38.13794922 36.05537109 38.13794922 35 39 C33.51928584 40.31075393 32.04008178 41.62321603 30.5625 42.9375 C29.3771874 43.96087236 28.1904984 44.982665 27 46 C22.53786343 44.50243362 20.71898639 40.99647788 18.375 37.1875 C17.98054688 36.57068359 17.58609375 35.95386719 17.1796875 35.31835938 C15.07722368 31.97643631 13.32533447 28.74086342 12 25 C11.38511719 25.2165625 10.77023438 25.433125 10.13671875 25.65625 C9.32847656 25.9346875 8.52023438 26.213125 7.6875 26.5 C6.88699219 26.7784375 6.08648437 27.056875 5.26171875 27.34375 C3 28 3 28 0 28 C0 18.76 0 9.52 0 0 Z " fill="#FBFBFB" transform="translate(186,266)"/>
<path d="M0 0 C1.67578125 2.1171875 1.67578125 2.1171875 3.3125 4.875 C3.90804687 5.85855469 4.50359375 6.84210938 5.1171875 7.85546875 C5.73851562 8.89316406 6.35984375 9.93085938 7 11 C8.30640927 13.06636331 9.61861447 15.12907744 10.9375 17.1875 C11.95833333 18.79166667 12.97916667 20.39583333 14 22 C19.64120743 18.08035996 24.45333909 13.70716382 29.21484375 8.7578125 C31 7 31 7 32 7 C32 19.54 32 32.08 32 45 C28.25404488 43.50161795 25.15742196 42.03756977 21.71875 40.0234375 C20.71714844 39.43997559 19.71554688 38.85651367 18.68359375 38.25537109 C16.53604768 36.98693552 14.39289467 35.71103656 12.25390625 34.42822266 C5.55902453 30.39455185 5.55902453 30.39455185 -1.46875 27 C-5.18561706 25.2895833 -7.46971373 24.22912724 -10 21 C-11.47016595 14.4299761 -10.79978722 7.62545625 -10 1 C-3.20379507 -1.62580645 -3.20379507 -1.62580645 0 0 Z " fill="#F7F8F9" transform="translate(196,299)"/>
<path d="M0 0 C0 14.85 0 29.7 0 45 C-14 53 -14 53 -16 53 C-16.33101493 46.73929684 -16.55778509 40.4808587 -16.71411133 34.21337891 C-16.77929148 32.084592 -16.86787133 29.95638295 -16.98071289 27.82958984 C-17.87061463 10.61945401 -17.87061463 10.61945401 -14.73040771 6.22216797 C-10.62640144 2.46118169 -5.61886301 0 0 0 Z " fill="#FAFAFB" transform="translate(254,290)"/>
<path d="M0 0 C0.83740723 0.45971191 1.67481445 0.91942383 2.53759766 1.39306641 C3.49456543 1.90554932 4.4515332 2.41803223 5.4375 2.94604492 C6.4888916 3.54860107 7.5402832 4.15115723 8.62353516 4.77197266 C9.19820526 5.09967148 9.77287537 5.4273703 10.36495972 5.76499939 C13.49026082 7.55061102 16.60356786 9.35630816 19.71240234 11.17041016 C20.96905961 11.90248777 22.22589411 12.63426125 23.48291016 13.36572266 C24.4050531 13.90303513 24.4050531 13.90303513 25.3458252 14.45120239 C28.74343882 16.41393649 32.16219357 18.23006926 35.71728516 19.88916016 C39.45629002 21.6866197 42.63688792 23.34421499 45.53759766 26.39306641 C47.36381409 31.65421128 46.93677573 37.09405158 45.53759766 42.39306641 C43.58837891 44.36962891 43.58837891 44.36962891 41.53759766 45.39306641 C40.87759766 45.39306641 40.21759766 45.39306641 39.53759766 45.39306641 C39.53759766 40.11306641 39.53759766 34.83306641 39.53759766 29.39306641 C37.88759766 28.73306641 36.23759766 28.07306641 34.53759766 27.39306641 C25.5627684 22.88000941 16.92409724 17.74837763 8.28759766 12.62744141 C7.63791016 12.24523437 6.98822266 11.86302734 6.31884766 11.46923828 C4.7784728 10.53859514 3.27847471 9.54172759 1.78759766 8.53369141 C-0.30610797 7.21234612 -0.30610797 7.21234612 -2.20898438 7.59472656 C-5.31773864 8.69609454 -7.94291781 10.3235319 -10.76708984 12.02587891 C-12.00235405 12.75704564 -13.23804461 13.48749246 -14.47412109 14.21728516 C-16.40961334 15.36659116 -18.34163826 16.52063411 -20.26660156 17.6875 C-22.13311446 18.81561219 -24.01115583 19.92202641 -25.89208984 21.02587891 C-27.00825684 21.69506348 -28.12442383 22.36424805 -29.27441406 23.05371094 C-32.9031198 24.57822309 -34.71923814 24.42008958 -38.46240234 23.39306641 C-38.79240234 22.40306641 -39.12240234 21.41306641 -39.46240234 20.39306641 C-38.76791992 20.00562256 -38.0734375 19.61817871 -37.35791016 19.21899414 C-34.14208052 17.42403181 -30.92723883 15.62730685 -27.71240234 13.83056641 C-26.62056641 13.22148437 -25.52873047 12.61240234 -24.40380859 11.98486328 C-23.31455078 11.37578125 -22.22529297 10.76669922 -21.10302734 10.13916016 C-20.00539062 9.52927246 -18.90775391 8.91938477 -17.77685547 8.29101562 C-15.53415298 7.00678101 -13.31916987 5.67309816 -11.13232422 4.29589844 C-10.08109375 3.63831543 -9.02986328 2.98073242 -7.94677734 2.30322266 C-6.54250488 1.39455444 -6.54250488 1.39455444 -5.10986328 0.4675293 C-2.46240234 -0.60693359 -2.46240234 -0.60693359 0 0 Z " fill="#F1F2F3" transform="translate(234.46240234375,237.60693359375)"/>
<path d="M0 0 C0 9.9 0 19.8 0 30 C-2.26875 31.32 -4.5375 32.64 -6.875 34 C-7.58769043 34.41765625 -8.30038086 34.8353125 -9.03466797 35.265625 C-13.77777778 38 -13.77777778 38 -16 38 C-16 28.1 -16 18.2 -16 8 C-12.596875 6.02 -12.596875 6.02 -9.125 4 C-8.05596436 3.37351562 -8.05596436 3.37351562 -6.96533203 2.734375 C-2.22222222 0 -2.22222222 0 0 0 Z " fill="#F9F9FA" transform="translate(280,290)"/>
</svg>
