<?xml version="1.0" encoding="UTF-8"?>
<svg version="1.1" xmlns="http://www.w3.org/2000/svg" width="400" height="400">
<path d="M0 0 C0.75338654 -0.00067474 1.50677307 -0.00134949 2.2829895 -0.00204468 C56.13010138 0.07429777 105.21757769 22.40875597 143.625 59.8125 C157.40721056 74.02540464 168.71547144 90.71345089 177.8125 108.25 C178.41578125 109.40242188 179.0190625 110.55484375 179.640625 111.7421875 C188.11311966 128.87799877 193.59597399 147.44603119 196.8125 166.25 C197.14894531 168.03470703 197.14894531 168.03470703 197.4921875 169.85546875 C205.1361569 217.86587928 192.75380272 270.81739922 164.85546875 310.5078125 C164.18128906 311.41273438 163.50710938 312.31765625 162.8125 313.25 C162.21236084 314.05775879 162.21236084 314.05775879 161.60009766 314.88183594 C142.54734585 340.328465 119.25494523 360.85393981 90.8125 375.25 C90.15266113 375.58612305 89.49282227 375.92224609 88.81298828 376.26855469 C59.95243467 390.79719491 59.95243467 390.79719491 47 387.1875 C41.9662946 384.12779672 38.27527465 380.10109862 36.8125 374.25 C36.21312108 367.97792775 36.43286137 362.74191278 39.8125 357.25 C45.6092974 351.75133425 52.65648767 348.89098877 59.9375 345.875 C80.58138443 337.0357388 97.70900132 325.81968105 113.8125 310.25 C114.47765625 309.63640625 115.1428125 309.0228125 115.828125 308.390625 C144.61783467 281.21529158 158.65474873 238.88337054 159.8125 200.25 C160.21958898 172.60356991 153.2907815 145.35431255 139.8125 121.25 C139.45397949 120.60305176 139.09545898 119.95610352 138.72607422 119.28955078 C133.84744395 110.57786499 128.43794025 102.7580681 121.8125 95.25 C121.04679687 94.37472656 120.28109375 93.49945313 119.4921875 92.59765625 C117.29424985 90.12031974 115.06469242 87.67801413 112.8125 85.25 C112.26335937 84.64671875 111.71421875 84.0434375 111.1484375 83.421875 C84.38716549 55.2104848 42.95548724 40.56527542 4.8125 39.25 C-34.31188854 38.87224728 -72.58563244 51.24462103 -102.1875 77.25 C-103.42886719 78.30960938 -103.42886719 78.30960938 -104.6953125 79.390625 C-135.72053059 106.42827588 -154.45680216 144.91714382 -157.78686523 185.88525391 C-160.41495746 226.86042026 -148.2108651 269.09009969 -121.25 300.5625 C-119.26145508 302.82254134 -117.23658461 305.04480109 -115.1875 307.25 C-114.72730469 307.74870605 -114.26710938 308.24741211 -113.79296875 308.76123047 C-98.0805082 325.61137278 -78.45892733 337.28894742 -57.4140625 346.3203125 C-56.21656372 346.83658203 -56.21656372 346.83658203 -54.99487305 347.36328125 C-53.46512889 348.01634191 -51.9303794 348.65785588 -50.38989258 349.28515625 C-44.40798933 351.82479129 -38.83539431 355.09750654 -35.75 361 C-34.35397716 369.06590975 -34.56299364 375.31324046 -39.1875 382.25 C-41.79038838 385.78249138 -44.49502805 387.19290699 -48.828125 388.046875 C-74.24077664 390.23471918 -105.10267623 367.8447659 -123.9375 352.75 C-145.95288778 334.19511479 -162.65539114 313.69428551 -176.1875 288.25 C-176.71899658 287.25516602 -176.71899658 287.25516602 -177.26123047 286.24023438 C-191.25718237 259.55261283 -197.65163526 228.8477016 -197.5625 198.875 C-197.56162384 198.14388 -197.56074768 197.41276001 -197.55984497 196.65948486 C-197.37160535 148.53658043 -179.39783699 100.41006324 -146.1875 65.25 C-145.09993658 63.96189298 -144.01648087 62.67030466 -142.9375 61.375 C-107.7838945 21.4168015 -52.39684363 0.0422134 0 0 Z " fill="#0071CD" transform="translate(199.1875,1.75)"/>
<path d="M0 0 C23.05453301 20.33071824 37.79129648 49.51714548 39.77148438 80.32006836 C41.55080767 113.82197134 30.89771556 144.95490855 8.64648438 170.18725586 C-4.19688372 184.3684748 -24.236769 199.89267598 -43.82617188 202.69116211 C-48.15600683 202.80781376 -50.50669513 202.81152061 -54.16601562 200.32006836 C-58.42010965 194.13229523 -60.42030532 187.86339611 -59.22851562 180.32006836 C-56.48456328 173.83436283 -51.30841705 172.0334128 -45.22851562 169.32006836 C-23.60057765 159.40969247 -6.47531356 143.28373261 1.9230957 120.78173828 C2.56160698 118.96891025 3.16728851 117.14462022 3.77148438 115.32006836 C4.28001953 113.87567383 4.28001953 113.87567383 4.79882812 112.40209961 C9.58747743 96.05007596 8.36832628 76.2848305 2.77148438 60.32006836 C2.40925781 59.26045898 2.04703125 58.20084961 1.67382812 57.10913086 C-2.835792 45.2159632 -10.3742213 35.3319124 -19.22851562 26.32006836 C-20.12957031 25.39967773 -20.12957031 25.39967773 -21.04882812 24.46069336 C-37.396968 9.03257867 -59.78745671 2.10608983 -81.93164062 2.36303711 C-85.06306675 2.55602035 -88.12395633 2.87346276 -91.22851562 3.32006836 C-91.96585937 3.4219043 -92.70320313 3.52374023 -93.46289062 3.62866211 C-110.25819047 6.69096302 -125.5957929 15.13278256 -138.22851562 26.32006836 C-139.18371094 27.14958008 -139.18371094 27.14958008 -140.15820312 27.99584961 C-157.36344447 43.97214514 -164.67405952 67.49636456 -166.22851562 90.32006836 C-166.18598881 97.08183179 -165.47654474 102.93912419 -163.22851562 109.32006836 C-162.883686 110.65047485 -162.54872948 111.98352357 -162.22851562 113.32006836 C-156.32955621 134.36959259 -142.46541042 151.57478346 -124.22851562 163.32006836 C-123.57367188 163.76995117 -122.91882813 164.21983398 -122.24414062 164.68334961 C-117.42577904 167.8989091 -112.40284457 169.94077807 -106.96289062 171.91381836 C-103.16969834 173.86460297 -101.11882354 176.53945252 -99.22851562 180.32006836 C-98.69629494 187.90421309 -100.01153472 194.02818762 -104.29101562 200.38256836 C-108.72807762 203.30914116 -112.06132107 203.25771855 -117.22851562 202.32006836 C-131.68506334 197.87314373 -144.84247451 190.21687562 -156.22851562 180.32006836 C-157.04835937 179.63299805 -157.86820313 178.94592773 -158.71289062 178.23803711 C-178.27956802 161.37545023 -190.73981519 138.39156932 -196.22851562 113.32006836 C-196.45410156 112.32362305 -196.6796875 111.32717773 -196.91210938 110.30053711 C-202.78868246 79.37760427 -194.95956788 48.41040821 -178.25976562 22.23413086 C-159.24991978 -4.95618144 -131.93880497 -21.4749083 -99.74023438 -28.43383789 C-63.73023815 -34.48487133 -27.577234 -23.66938152 0 0 Z " fill="#FCCD01" transform="translate(279.228515625,110.679931640625)"/>
<path d="M0 0 C0.87096313 -0.00635468 1.74192627 -0.01270935 2.63928223 -0.01925659 C17.48379381 -0.08654099 31.7630227 1.36563483 46 5.8125 C47.05368774 6.13383911 47.05368774 6.13383911 48.12866211 6.46166992 C76.32144233 15.26446535 100.47715346 31.62148843 121.1875 52.4375 C121.785625 52.994375 122.38375 53.55125 123 54.125 C124.1875 55.4375 124.1875 55.4375 124.1875 57.4375 C125.1775 57.7675 126.1675 58.0975 127.1875 58.4375 C128.375 61 128.375 61 129.1875 63.4375 C129.8475 63.4375 130.5075 63.4375 131.1875 63.4375 C132.80924865 65.57121846 134.29166272 67.69473311 135.75 69.9375 C136.19327637 70.61530518 136.63655273 71.29311035 137.09326172 71.99145508 C162.28240066 110.95884677 171.89979881 155.32828377 162.65136719 201.09033203 C161.4054625 206.6151339 159.85485047 212.02706855 158.1875 217.4375 C157.98318359 218.13327148 157.77886719 218.82904297 157.56835938 219.54589844 C152.29400781 237.30288203 143.05256069 254.23198995 131.1875 268.4375 C130.29273445 269.53366295 129.39821475 270.63002663 128.50390625 271.7265625 C107.5149335 297.21578779 81.95450709 312.45948627 51.81665039 325.02514648 C50.87039795 325.42548096 49.92414551 325.82581543 48.94921875 326.23828125 C48.10319092 326.59059814 47.25716309 326.94291504 46.38549805 327.3059082 C42.1575117 329.48259561 40.74135696 332.01498404 39.1875 336.4375 C38.5275 336.4375 37.8675 336.4375 37.1875 336.4375 C37.13888387 334.72985857 37.15106385 333.02044473 37.1875 331.3125 C37.1875 330.36117188 37.1875 329.40984375 37.1875 328.4296875 C38.76043721 323.72316444 42.00582079 321.88592951 46.1875 319.4375 C50.15950204 317.46967428 54.21829795 315.75842728 58.3125 314.0625 C78.95638443 305.2232388 96.08400132 294.00718105 112.1875 278.4375 C112.85265625 277.82390625 113.5178125 277.2103125 114.203125 276.578125 C142.99283467 249.40279158 157.02974873 207.07087054 158.1875 168.4375 C158.59458898 140.79106991 151.6657815 113.54181255 138.1875 89.4375 C137.82897949 88.79055176 137.47045898 88.14360352 137.10107422 87.47705078 C132.22244395 78.76536499 126.81294025 70.9455681 120.1875 63.4375 C119.42179687 62.56222656 118.65609375 61.68695313 117.8671875 60.78515625 C115.66924985 58.30781974 113.43969242 55.86551413 111.1875 53.4375 C110.36378906 52.53257813 110.36378906 52.53257813 109.5234375 51.609375 C82.76216549 23.3979848 41.33048724 8.75277542 3.1875 7.4375 C-35.93688854 7.05974728 -74.21063244 19.43212103 -103.8125 45.4375 C-104.64007813 46.14390625 -105.46765625 46.8503125 -106.3203125 47.578125 C-137.34553059 74.61577588 -156.08180216 113.10464382 -159.41186523 154.07275391 C-162.03995746 195.04792026 -149.8358651 237.27759969 -122.875 268.75 C-120.88645508 271.01004134 -118.86158461 273.23230109 -116.8125 275.4375 C-116.12220703 276.18555908 -116.12220703 276.18555908 -115.41796875 276.94873047 C-99.894385 293.59632011 -80.36375531 305.61711661 -59.4140625 314.28515625 C-58.33668823 314.73459595 -58.33668823 314.73459595 -57.23754883 315.19311523 C-55.8740809 315.75422806 -54.50435911 316.30048441 -53.12768555 316.82836914 C-48.19488573 318.84699907 -45.88270639 321.24605189 -42.8125 325.4375 C-43.4725 326.4275 -44.1325 327.4175 -44.8125 328.4375 C-93.83281798 308.88617245 -132.3298973 281.50261939 -154.34375 232.09375 C-158.81936146 220.95233423 -162.54114662 209.52757717 -165.1875 197.8125 C-165.34299316 197.12776611 -165.49848633 196.44303223 -165.65869141 195.73754883 C-173.98755917 156.23015949 -164.39243111 112.77094697 -143.4375 78.75 C-136.18435639 67.78823545 -127.85378826 57.94352738 -118.8125 48.4375 C-118.23242188 47.80457031 -117.65234375 47.17164063 -117.0546875 46.51953125 C-97.58967987 25.92966137 -69.78032552 11.92967408 -42.8125 4.4375 C-42.01585937 4.2115918 -41.21921875 3.98568359 -40.3984375 3.75292969 C-27.10665819 0.18323153 -13.66869851 0.05124921 0 0 Z " fill="#007FEE" transform="translate(200.8125,33.5625)"/>
<path d="M0 0 C8.0279209 7.22679781 13.34125573 15.44080491 14.15234375 26.37890625 C14.56045605 38.5220124 12.72165002 47.4842182 4.69140625 57.06640625 C-2.76251261 64.72942845 -11.3878846 69.57414822 -22.12109375 70.69140625 C-34.84977818 70.5018032 -44.65984943 67.1506156 -54.05859375 58.31640625 C-62.501332 49.34599686 -64.94934775 38.79949952 -65.12109375 26.69140625 C-64.5777503 16.33769488 -58.66331437 7.22321965 -51.19140625 0.25390625 C-35.43118471 -11.64060058 -15.59177546 -12.56791597 0 0 Z " fill="#0075D4" transform="translate(225.12109375,169.30859375)"/>
<path d="M0 0 C23.05453301 20.33071824 37.79129648 49.51714548 39.77148438 80.32006836 C41.55080767 113.82197134 30.89771556 144.95490855 8.64648438 170.18725586 C-3.94103061 184.08597032 -24.45661215 200.40399037 -43.86132812 202.62084961 C-44.68375 202.6247168 -45.50617188 202.62858398 -46.35351562 202.63256836 C-47.18109375 202.64932617 -48.00867188 202.66608398 -48.86132812 202.68334961 C-51.7041741 202.24707127 -53.08695469 201.19023332 -55.22851562 199.32006836 C-54.89851563 198.66006836 -54.56851563 198.00006836 -54.22851562 197.32006836 C-53.56851563 197.98006836 -52.90851563 198.64006836 -52.22851562 199.32006836 C-33.17905894 198.9992354 -13.61142218 184.54709635 -0.22851562 172.32006836 C0.51011719 171.66393555 1.24875 171.00780273 2.00976562 170.33178711 C22.5780384 151.08252181 33.81356481 121.89400821 35.05273438 94.15209961 C35.90947383 61.67062935 24.75253109 32.29125907 2.45947266 8.61181641 C-11.61304169 -5.84765774 -29.26507328 -14.48680743 -48.22851562 -20.67993164 C-49.24171875 -21.03055664 -50.25492187 -21.38118164 -51.29882812 -21.74243164 C-68.16755956 -27.1404257 -88.89005208 -26.40110929 -105.95898438 -22.33618164 C-109.46702645 -21.6320585 -112.65897837 -21.61274035 -116.22851562 -21.67993164 C-118.56676155 -21.38301152 -120.90229252 -21.05972317 -123.22851562 -20.67993164 C-87.05692172 -44.79432758 -29.58815402 -25.39534263 0 0 Z " fill="#E49D00" transform="translate(279.228515625,110.679931640625)"/>
<path d="M0 0 C2.375 1.5 2.375 1.5 3.1875 4.625 C3.249375 5.57375 3.31125 6.5225 3.375 7.5 C0.375 7.5 0.375 7.5 -2.625 5.5 C-2.2846875 6.8921875 -2.2846875 6.8921875 -1.9375 8.3125 C-1.625 11.5 -1.625 11.5 -3.0625 13.375 C-3.578125 13.74625 -4.09375 14.1175 -4.625 14.5 C-3.635 15.16 -2.645 15.82 -1.625 16.5 C-1.955 17.49 -2.285 18.48 -2.625 19.5 C-3.285 19.17 -3.945 18.84 -4.625 18.5 C-4.955 19.49 -5.285 20.48 -5.625 21.5 C-4.965 21.5 -4.305 21.5 -3.625 21.5 C-4.13337558 26.41429727 -4.66029849 30.91569648 -6.625 35.5 C-7.615 36.16 -8.605 36.82 -9.625 37.5 C-8.305 37.83 -6.985 38.16 -5.625 38.5 C-6.625 41.5 -6.625 41.5 -8.6875 42.6875 C-9.326875 42.955625 -9.96625 43.22375 -10.625 43.5 C-10.41875 44.2425 -10.2125 44.985 -10 45.75 C-9.58091249 48.82330841 -10.00550989 49.92786866 -11.625 52.5 C-9.975 51.84 -8.325 51.18 -6.625 50.5 C-6.295 51.49 -5.965 52.48 -5.625 53.5 C-7.3125 55.5625 -7.3125 55.5625 -9.625 57.5 C-12.125 57.75 -12.125 57.75 -14.625 56.5 C-20.93333754 47.33014852 -22.72016467 35.22905526 -21.125 24.375 C-19.32434634 16.9427718 -9.36870115 -1.78451451 0 0 Z " fill="#039CFB" transform="translate(181.625,166.5)"/>
<path d="M0 0 C3.1951427 0.31951427 4.66557417 0.66952408 6.984375 2.9609375 C7.56703125 3.75757813 8.1496875 4.55421875 8.75 5.375 C9.34296875 6.16648437 9.9359375 6.95796875 10.546875 7.7734375 C12 10 12 10 13 13 C13.99 13.33 14.98 13.66 16 14 C16 14.66 16 15.32 16 16 C16.85271484 16.36738281 16.85271484 16.36738281 17.72265625 16.7421875 C20.39490603 18.21811276 22.24433873 20.00210865 24.4375 22.125 C36.41643765 33.06915387 53.71612967 43.04593556 70 45 C70 43.68 70 42.36 70 41 C71.98 40.67 73.96 40.34 76 40 C76.66 35.38 77.32 30.76 78 26 C78.33 26 78.66 26 79 26 C79.4160384 33.62737064 78.25142863 39.65696961 73.9375 46.0625 C69.50043801 48.9890728 66.16719455 48.93765019 61 48 C46.54345229 43.55307537 33.38604111 35.89680726 22 26 C21.18015625 25.31292969 20.3603125 24.62585938 19.515625 23.91796875 C12.05667741 17.48983845 3.20066024 9.53240116 0 0 Z " fill="#C28702" transform="translate(101,265)"/>
<path d="M0 0 C1.32 0.66 2.64 1.32 4 2 C3.67 2.99 3.34 3.98 3 5 C2.34 4.67 1.68 4.34 1 4 C0.67 4.99 0.34 5.98 0 7 C0.66 7 1.32 7 2 7 C1.49162442 11.91429727 0.96470151 16.41569648 -1 21 C-1.99 21.66 -2.98 22.32 -4 23 C-2.68 23.33 -1.36 23.66 0 24 C-0.33 24.99 -0.66 25.98 -1 27 C-1.66 27 -2.32 27 -3 27 C-3 26.34 -3 25.68 -3 25 C-4.32 24.67 -5.64 24.34 -7 24 C-6.9278125 23.41992188 -6.855625 22.83984375 -6.78125 22.2421875 C-6.36193549 18.71295705 -5.98541516 15.3719134 -6.125 11.8125 C-5.96855293 8.29244095 -4.73109566 6.0294174 -3 3 C-2.34 3 -1.68 3 -1 3 C-0.67 2.01 -0.34 1.02 0 0 Z " fill="#008BF6" transform="translate(176,181)"/>
<path d="M0 0 C0.66 0.33 1.32 0.66 2 1 C2 1.99 2 2.98 2 4 C0.90300781 4.53109375 -0.19398438 5.0621875 -1.32421875 5.609375 C-2.77880526 6.32259161 -4.2332235 7.03615148 -5.6875 7.75 C-6.7693457 8.27207031 -6.7693457 8.27207031 -7.87304688 8.8046875 C-12.00165226 10.84071207 -15.46485849 13.00721847 -19 16 C-21.125 16.875 -21.125 16.875 -23 17 C-23.99 16.34 -24.98 15.68 -26 15 C-20.15548345 10.50421804 -14.06691006 6.818888 -7.5 3.5 C-6.79359375 3.13777344 -6.0871875 2.77554688 -5.359375 2.40234375 C-3.60427065 1.53499567 -1.80462518 0.75895451 0 0 Z " fill="#DDA104" transform="translate(154,90)"/>
<path d="M0 0 C3.1951427 0.31951427 4.66557417 0.66952408 6.984375 2.9609375 C7.56703125 3.75757813 8.1496875 4.55421875 8.75 5.375 C9.34296875 6.16648437 9.9359375 6.95796875 10.546875 7.7734375 C12 10 12 10 13 13 C13.99 13.33 14.98 13.66 16 14 C16 14.66 16 15.32 16 16 C16.61875 16.268125 17.2375 16.53625 17.875 16.8125 C20 18 20 18 22 21 C16.85440555 21 15.07237327 18.80296705 11.5625 15.4375 C11.00240234 14.92380859 10.44230469 14.41011719 9.86523438 13.88085938 C5.99177779 10.24243166 2.89395265 6.46263727 0 2 C0 1.34 0 0.68 0 0 Z " fill="#F0B300" transform="translate(101,265)"/>
<path d="M0 0 C0.66 0.33 1.32 0.66 2 1 C-3.87359955 7.46839445 -9.75507779 13.88552003 -16 20 C-16.93791666 20.95792555 -17.87545268 21.91622404 -18.8125 22.875 C-21 25 -21 25 -23 26 C-21.48699756 20.70956866 -18.02127354 17.43336354 -14.3125 13.5625 C-13.71244141 12.91990234 -13.11238281 12.27730469 -12.49414062 11.61523438 C-8.54940408 7.44169464 -4.41742129 3.66889804 0 0 Z " fill="#A7891A" transform="translate(126,106)"/>
<path d="M0 0 C0 0.66 0 1.32 0 2 C-2.18537367 2.50921328 -4.37342431 3.00694437 -6.5625 3.5 C-8.38974609 3.91765625 -8.38974609 3.91765625 -10.25390625 4.34375 C-13.93230387 4.98814082 -17.27556987 5.07094153 -21 5 C-23.33824592 5.29692012 -25.67377689 5.62020847 -28 6 C-19.61350983 0.40900655 -9.83920425 -0.63821865 0 0 Z " fill="#DD9800" transform="translate(184,84)"/>
<path d="M0 0 C1.485 0.99 1.485 0.99 3 2 C5.23406485 1.76288763 5.23406485 1.76288763 7.625 1.0625 C12.77613478 -0.12680612 16.8009411 0.16144211 22 1 C17.66384601 5.33615399 12.16537444 5.24587248 6.3671875 5.36328125 C3.48807366 4.92143705 2.10013315 3.98883577 0 2 C0 1.34 0 0.68 0 0 Z " fill="#D48E00" transform="translate(224,308)"/>
<path d="M0 0 C5.27028251 4.45046079 10.3747596 9.05794696 15.44921875 13.73046875 C17.56834486 15.6159393 19.69925307 17.34583301 22 19 C13.77837543 17.87493559 6.01753562 10.4063178 1 4 C0.3125 1.79296875 0.3125 1.79296875 0 0 Z " fill="#A2D25C" transform="translate(132,255)"/>
<path d="M0 0 C4.06785285 4.06785285 4.50873371 9.23840282 5.125 14.75 C5.20991699 15.48210693 5.29483398 16.21421387 5.38232422 16.96850586 C6.22991897 24.97802049 6.18118489 32.95740426 6 41 C5.67 41 5.34 41 5 41 C4.95512451 40.38181396 4.91024902 39.76362793 4.86401367 39.12670898 C4.02399753 27.85501044 3.08526801 16.80227258 0.5859375 5.765625 C0 3 0 3 0 0 Z " fill="#003AD5" transform="translate(354,157)"/>
<path d="M0 0 C2.8442585 1.15877198 4.27847757 2.29275847 6.4375 4.5625 C9.28134478 7.26762064 10.3104704 7.28009179 14 8 C16.26175844 9.49533318 18.0191986 11.1113289 20 13 C20 13.66 20 14.32 20 15 C17.08482708 13.92598892 15.22189824 13.22189824 13 11 C12.22269531 10.71253906 11.44539063 10.42507813 10.64453125 10.12890625 C7.61620436 8.83616405 5.96282887 7.29852864 3.6875 4.9375 C2.99011719 4.22464844 2.29273437 3.51179688 1.57421875 2.77734375 C0 1 0 1 0 0 Z " fill="#B88105" transform="translate(111,279)"/>
<path d="M0 0 C2.1875 0 2.1875 0 5 1 C6.96188534 3.50803179 8.49921743 6.19641043 10 9 C9.01 10.485 9.01 10.485 8 12 C6.66081194 10.37982158 5.3288031 8.75370657 4 7.125 C3.2575 6.22007812 2.515 5.31515625 1.75 4.3828125 C0 2 0 2 0 0 Z " fill="#CB9102" transform="translate(101,265)"/>
<path d="M0 0 C0 1.65 0 3.3 0 5 C-1.32 5 -2.64 5 -4 5 C-5.92386394 6.51516011 -5.92386394 6.51516011 -7.625 8.5 C-8.7149779 9.69945166 -9.83405104 10.87425618 -11 12 C-11.66 12 -12.32 12 -13 12 C-11.50198648 8.38522825 -9.42462583 6.31379537 -6.5 3.75 C-5.7059375 3.04359375 -4.911875 2.3371875 -4.09375 1.609375 C-2 0 -2 0 0 0 Z " fill="#0082FF" transform="translate(181,166)"/>
<path d="M0 0 C0.33 0 0.66 0 1 0 C0.67 4.95 0.34 9.9 0 15 C-0.66 15 -1.32 15 -2 15 C-2.3690205 4.44191344 -2.3690205 4.44191344 0 0 Z " fill="#004CB2" transform="translate(238,361)"/>
<path d="M0 0 C0.33 0.99 0.66 1.98 1 3 C2.65 2.34 4.3 1.68 6 1 C6.33 1.99 6.66 2.98 7 4 C5.25 6.0625 5.25 6.0625 3 8 C0.75 7.75 0.75 7.75 -1 7 C-0.34 6.34 0.32 5.68 1 5 C0.67958603 2.39719432 0.67958603 2.39719432 0 0 Z " fill="#008CFA" transform="translate(169,216)"/>
<path d="M0 0 C-2.88628401 1.57554035 -5.53342384 2.46276373 -8.75 3.125 C-9.54921875 3.29257813 -10.3484375 3.46015625 -11.171875 3.6328125 C-11.77515625 3.75398438 -12.3784375 3.87515625 -13 4 C-12.67 3.01 -12.34 2.02 -12 1 C-7.64334521 -0.67563646 -4.50462014 -1.36503641 0 0 Z " fill="#F1B400" transform="translate(168,89)"/>
<path d="M0 0 C0.99 0.33 1.98 0.66 3 1 C3.33 2.98 3.66 4.96 4 7 C1 7 1 7 -0.6875 5.5 C-1.120625 5.005 -1.55375 4.51 -2 4 C-1.34 2.68 -0.68 1.36 0 0 Z " fill="#0090F9" transform="translate(181,167)"/>
<path d="M0 0 C0.66 0.33 1.32 0.66 2 1 C1.67 1.66 1.34 2.32 1 3 C2.98 2.34 4.96 1.68 7 1 C5.95125002 3.62187494 5.35068687 4.79371361 2.875 6.25 C2.25625 6.4975 1.6375 6.745 1 7 C1 6.01 1 5.02 1 4 C0.34 3.67 -0.32 3.34 -1 3 C-0.67 2.01 -0.34 1.02 0 0 Z " fill="#0081E7" transform="translate(171,208)"/>
<path d="M0 0 C0.33 0 0.66 0 1 0 C1.20674944 5.78898419 0.59162079 10.42932723 -1 16 C-1.66 16 -2.32 16 -3 16 C-2.86722656 15.43152344 -2.73445312 14.86304688 -2.59765625 14.27734375 C-1.5115242 9.52848903 -0.61687618 4.83219676 0 0 Z " fill="#E9A900" transform="translate(178,289)"/>
<path d="M0 0 C0.66 0.33 1.32 0.66 2 1 C2.25 8.625 2.25 8.625 0 12 C-0.19573608 10.56359829 -0.38127816 9.12580496 -0.5625 7.6875 C-0.66691406 6.88699219 -0.77132813 6.08648437 -0.87890625 5.26171875 C-1 3 -1 3 0 0 Z " fill="#006EE2" transform="translate(360,199)"/>
<path d="M0 0 C2.92965912 2.92965912 3.94133569 5.680053 4.125 9.8125 C4.08375 10.534375 4.0425 11.25625 4 12 C3.34 12 2.68 12 2 12 C1.34 8.04 0.68 4.08 0 0 Z " fill="#004ED1" transform="translate(354,157)"/>
<path d="M0 0 C3.99455527 0.61454696 6.74466336 2.70646737 10 5 C8.375 5.8125 8.375 5.8125 6 6 C3.70232365 4.54854104 1.98596134 2.89569037 0 1 C0 0.67 0 0.34 0 0 Z " fill="#BBC743" transform="translate(144,268)"/>
<path d="M0 0 C1.32 0.66 2.64 1.32 4 2 C3.67 2.99 3.34 3.98 3 5 C2.34 4.67 1.68 4.34 1 4 C0.34 4.66 -0.32 5.32 -1 6 C-1.33 5.01 -1.66 4.02 -2 3 C-1.34 2.01 -0.68 1.02 0 0 Z " fill="#0088F4" transform="translate(176,181)"/>
<path d="M0 0 C0 3 0 3 -2.5 5.6875 C-3.325 6.450625 -4.15 7.21375 -5 8 C-5 5 -5 5 -2.5 2.3125 C-1.675 1.549375 -0.85 0.78625 0 0 Z " fill="#9BEE63" transform="translate(132,144)"/>
<path d="M0 0 C1.98 0.99 1.98 0.99 4 2 C3.67 3.32 3.34 4.64 3 6 C2.01 5.34 1.02 4.68 0 4 C0 2.68 0 1.36 0 0 Z " fill="#E8A800" transform="translate(110,274)"/>
</svg>
