<?xml version="1.0" encoding="UTF-8" standalone="no"?>
<!-- Created with Inkscape (http://www.inkscape.org/) -->

<svg
   version="1.1"
   id="svg2"
   width="290.56"
   height="293.44"
   viewBox="0 0 290.56 293.44"
   sodipodi:docname="navigation.svg"
   inkscape:version="1.2.1 (9c6d41e410, 2022-07-14)"
   xmlns:inkscape="http://www.inkscape.org/namespaces/inkscape"
   xmlns:sodipodi="http://sodipodi.sourceforge.net/DTD/sodipodi-0.dtd"
   xmlns="http://www.w3.org/2000/svg"
   xmlns:svg="http://www.w3.org/2000/svg">
  <defs
     id="defs6">
    <clipPath
       clipPathUnits="userSpaceOnUse"
       id="clipPath18">
      <path
         d="M 0,0 H 908.33331 V 908.33331 H 0 Z"
         clip-rule="evenodd"
         id="path16" />
    </clipPath>
  </defs>
  <sodipodi:namedview
     id="namedview4"
     pagecolor="#ffffff"
     bordercolor="#000000"
     borderopacity="0.25"
     inkscape:showpageshadow="2"
     inkscape:pageopacity="0.0"
     inkscape:pagecheckerboard="0"
     inkscape:deskcolor="#d1d1d1"
     showgrid="false"
     inkscape:zoom="2.9341603"
     inkscape:cx="145.18634"
     inkscape:cy="146.89041"
     inkscape:window-width="1920"
     inkscape:window-height="1000"
     inkscape:window-x="5029"
     inkscape:window-y="210"
     inkscape:window-maximized="1"
     inkscape:current-layer="g10">
    <inkscape:page
       x="0"
       y="0"
       id="page8"
       width="290.56"
       height="293.44" />
  </sodipodi:namedview>
  <g
     id="g10"
     inkscape:groupmode="layer"
     inkscape:label="Page 1"
     transform="matrix(0.31999998,0,0,0.31999998,0,7.336e-6)">
    <g
       id="g12">
      <g
         id="g14"
         clip-path="url(#clipPath18)">
        <g
           id="g20"
           transform="matrix(2.9977996,0,0,2.9977996,1.4988998,1.4988998)">
          <path
             d="M 1,1 H 301 V 301 H 1 Z"
             style="fill:#ffffff;fill-opacity:1;fill-rule:nonzero;stroke:none"
             id="path22" />
          <path
             d="M 1,1 H 301 V 301 H 1 Z"
             style="fill:none;stroke:#000000;stroke-width:1;stroke-linecap:butt;stroke-linejoin:miter;stroke-miterlimit:10;stroke-dasharray:none;stroke-opacity:1"
             id="path24" />
          <path
             d="m 141,116 c -2e-5,0.66303 -0.12689,1.30083 -0.38063,1.9134 -0.25374,0.61257 -0.61502,1.15328 -1.08385,1.62213 -0.46884,0.46883 -1.00955,0.83012 -1.62211,1.08385 -0.61257,0.25374 -1.25037,0.38061 -1.91341,0.38062 -0.66305,-1e-5 -1.30087,-0.12688 -1.91344,-0.38062 -0.61256,-0.25373 -1.15327,-0.61502 -1.62211,-1.08385 -0.46886,-0.46885 -0.83014,-1.00955 -1.08387,-1.62212 C 131.12685,117.30083 130.99998,116.66303 131,116 c -2e-5,-0.66305 0.12685,-1.30085 0.38057,-1.91341 0.25374,-0.61258 0.61502,-1.15329 1.08388,-1.62213 0.46884,-0.46885 1.00955,-0.83014 1.62211,-1.08387 C 134.69913,111.12686 135.33695,111 136,111 c 0.66304,0 1.30084,0.12686 1.91341,0.38059 0.61256,0.25373 1.15327,0.61502 1.62211,1.08387 0.46883,0.46884 0.83011,1.00955 1.08385,1.62212 0.25374,0.61257 0.38061,1.25037 0.38063,1.91342 z"
             style="fill:#af77ee;fill-opacity:1;fill-rule:nonzero;stroke:none"
             id="path26" />
          <path
             d="m 47,62 c -4e-6,0.663036 -0.126877,1.300835 -0.380611,1.913403 -0.253731,0.612575 -0.615017,1.153286 -1.083859,1.622127 -0.468845,0.468834 -1.009552,0.830124 -1.62212,1.083862 C 43.300842,66.873131 42.663036,67 42,67 41.336956,67 40.69915,66.873131 40.086575,66.619392 39.474007,66.365654 38.933304,66.004364 38.464462,65.53553 37.995621,65.066689 37.634331,64.525978 37.380596,63.913406 37.126862,63.300838 36.999996,62.663036 37,62 c -4e-6,-0.663044 0.126862,-1.300854 0.380596,-1.913425 0.253735,-0.612568 0.615025,-1.153275 1.083866,-1.622113 0.468842,-0.468845 1.009545,-0.830131 1.622113,-1.083862 C 40.69915,57.126865 41.336956,57 42,57 c 0.663036,0 1.300842,0.126865 1.91341,0.380596 0.612568,0.253735 1.153275,0.615021 1.62212,1.083866 0.468842,0.468838 0.830128,1.009545 1.083862,1.622113 C 46.873127,60.699146 46.999996,61.336956 47,62 Z"
             style="fill:#af77ee;fill-opacity:1;fill-rule:nonzero;stroke:none"
             id="path28" />
          <path
             d="m 71,176 c -8e-6,0.66304 -0.126877,1.30084 -0.380615,1.91341 -0.253731,0.61256 -0.615013,1.15327 -1.083855,1.62211 -0.468841,0.46883 -1.009552,0.83011 -1.622124,1.08385 C 67.300835,180.87311 66.663033,180.99998 66,181 c -0.663048,-2e-5 -1.30085,-0.12689 -1.913422,-0.38063 -0.612575,-0.25374 -1.153278,-0.61502 -1.622116,-1.08385 -0.468845,-0.46884 -0.830131,-1.00955 -1.083866,-1.62211 C 61.126862,177.30084 60.999996,176.66304 61,176 c -4e-6,-0.66304 0.126862,-1.30086 0.380596,-1.91344 0.253735,-0.61258 0.615021,-1.15329 1.083866,-1.62211 0.468838,-0.46884 1.009541,-0.83013 1.622116,-1.08387 C 64.69915,171.12686 65.336952,171 66,171 c 0.663033,0 1.300835,0.12686 1.913406,0.38058 0.612572,0.25374 1.153283,0.61503 1.622124,1.08387 0.468842,0.46882 0.830124,1.00953 1.083855,1.62211 C 70.873123,174.69914 70.999992,175.33696 71,176 Z"
             style="fill:#af77ee;fill-opacity:1;fill-rule:nonzero;stroke:none"
             id="path30" />
          <path
             d="m 211,56 c -2e-5,0.663036 -0.12689,1.300838 -0.38063,1.913406 -0.25374,0.612576 -0.61502,1.153283 -1.08385,1.622124 -0.46885,0.468838 -1.00956,0.830128 -1.62213,1.083862 C 207.30083,60.873127 206.66304,60.999996 206,61 c -0.66306,-4e-6 -1.30087,-0.126873 -1.91344,-0.380608 -0.61256,-0.253734 -1.15327,-0.615024 -1.6221,-1.083862 -0.46885,-0.468841 -0.83014,-1.009548 -1.08386,-1.62212 C 201.12686,57.300838 200.99998,56.663036 201,56 c -2e-5,-0.663044 0.12686,-1.300854 0.3806,-1.913422 0.25372,-0.612571 0.61501,-1.153278 1.08386,-1.622116 0.46883,-0.468841 1.00954,-0.830127 1.6221,-1.083862 C 204.69913,51.126865 205.33694,51 206,51 c 0.66304,0 1.30083,0.126865 1.91339,0.3806 0.61257,0.253735 1.15328,0.615021 1.62213,1.083862 0.46883,0.468838 0.83011,1.009545 1.08385,1.622113 C 210.87311,54.699146 210.99998,55.336956 211,56 Z"
             style="fill:#af77ee;fill-opacity:1;fill-rule:nonzero;stroke:none"
             id="path32" />
          <path
             d="m 153,74 c -2e-5,0.663033 -0.12689,1.300835 -0.38063,1.913406 -0.25374,0.612572 -0.61502,1.153275 -1.08386,1.622124 -0.46886,0.468834 -1.00957,0.830124 -1.62213,1.083855 C 149.30083,78.873123 148.66304,78.999992 148,79 c -0.66305,-8e-6 -1.30087,-0.126877 -1.91344,-0.380615 -0.61256,-0.253731 -1.15327,-0.615021 -1.6221,-1.083855 -0.46886,-0.468849 -0.83014,-1.009552 -1.08386,-1.622124 C 143.12686,75.300835 142.99998,74.663033 143,74 c -2e-5,-0.663048 0.12686,-1.30085 0.3806,-1.913422 0.25372,-0.612571 0.615,-1.153282 1.08386,-1.622116 0.46883,-0.468841 1.00954,-0.830131 1.6221,-1.08387 C 146.69913,69.126862 147.33695,69 148,69 c 0.66304,0 1.30083,0.126862 1.91338,0.380592 0.61256,0.253739 1.15327,0.615029 1.62213,1.08387 0.46884,0.468834 0.83012,1.009545 1.08386,1.622116 C 152.87311,72.69915 152.99998,73.336952 153,74 Z"
             style="fill:#af77ee;fill-opacity:1;fill-rule:nonzero;stroke:none"
             id="path34" />
          <path
             d="m 101,236 c -1e-5,0.66302 -0.12688,1.30083 -0.38062,1.91339 -0.25373,0.61257 -0.61502,1.15328 -1.08385,1.62212 -0.468841,0.46882 -1.009552,0.83011 -1.622124,1.08384 C 97.300835,240.87311 96.663033,240.99998 96,241 c -0.663048,-2e-5 -1.300858,-0.12689 -1.913429,-0.38063 -0.612572,-0.25374 -1.153282,-0.61504 -1.622116,-1.08386 -0.468842,-0.46884 -0.830132,-1.00955 -1.083863,-1.62212 C 91.126854,237.30083 90.999992,236.66302 91,236 c -8e-6,-0.66307 0.126854,-1.30089 0.380585,-1.91345 0.253738,-0.61257 0.615028,-1.15326 1.08387,-1.62209 0.468834,-0.46885 1.009544,-0.83014 1.622116,-1.08388 C 94.699142,231.12686 95.336952,231 96,231 c 0.663033,0 1.300835,0.12686 1.913406,0.3806 0.612572,0.25372 1.153283,0.61501 1.622124,1.08386 0.46883,0.46883 0.83012,1.00952 1.08385,1.62209 0.25374,0.61256 0.38061,1.25038 0.38062,1.91345 z"
             style="fill:#af77ee;fill-opacity:1;fill-rule:nonzero;stroke:none"
             id="path36" />
          <path
             d="m 31,126 c -2e-6,0.66303 -0.126869,1.30083 -0.380606,1.9134 -0.253736,0.61257 -0.615022,1.15328 -1.083862,1.62212 -0.468842,0.46883 -1.009548,0.83011 -1.622118,1.08385 C 27.300844,130.87311 26.663038,130.99998 26,131 c -0.663042,-2e-5 -1.30085,-0.12689 -1.91342,-0.38063 -0.61257,-0.25374 -1.153274,-0.61502 -1.622114,-1.08385 -0.468843,-0.46884 -0.830131,-1.00955 -1.083864,-1.62212 C 21.126865,127.30083 20.999998,126.66303 21,126 c -2e-6,-0.66305 0.126865,-1.30086 0.380602,-1.91343 0.253733,-0.61257 0.615021,-1.15327 1.083864,-1.62211 0.46884,-0.46885 1.009544,-0.83013 1.622114,-1.08386 C 24.69915,121.12687 25.336958,121 26,121 c 0.663038,0 1.300844,0.12687 1.913414,0.3806 0.61257,0.25373 1.153276,0.61501 1.622118,1.08386 0.46884,0.46884 0.830126,1.00954 1.083862,1.62211 C 30.873131,124.69914 30.999998,125.33695 31,126 Z"
             style="fill:#af77ee;fill-opacity:1;fill-rule:nonzero;stroke:none"
             id="path38" />
          <path
             d="m 231,156 c -2e-5,0.66302 -0.12689,1.30083 -0.38063,1.91339 -0.25374,0.61256 -0.61502,1.15328 -1.08385,1.62213 -0.46884,0.46883 -1.00955,0.83013 -1.62211,1.08386 -0.61257,0.25374 -1.25037,0.3806 -1.91341,0.38062 -0.66306,-2e-5 -1.30087,-0.12688 -1.91344,-0.38062 -0.61258,-0.25373 -1.15329,-0.61503 -1.62211,-1.08386 -0.46886,-0.46885 -0.83014,-1.00957 -1.08387,-1.62213 C 221.12685,157.30083 220.99998,156.66302 221,156 c -2e-5,-0.66304 0.12685,-1.30086 0.38058,-1.91342 0.25373,-0.61257 0.61501,-1.15328 1.08387,-1.62212 0.46882,-0.46886 1.00953,-0.83014 1.62211,-1.08388 C 224.69913,151.12686 225.33694,151 226,151 c 0.66304,0 1.30084,0.12686 1.91341,0.38058 0.61256,0.25374 1.15327,0.61502 1.62211,1.08388 0.46883,0.46884 0.83011,1.00955 1.08385,1.62212 0.25374,0.61256 0.38061,1.25038 0.38063,1.91342 z"
             style="fill:#af77ee;fill-opacity:1;fill-rule:nonzero;stroke:none"
             id="path40" />
          <path
             d="m 251,106 c -2e-5,0.66303 -0.12691,1.30083 -0.38065,1.91341 -0.25373,0.61257 -0.61502,1.15328 -1.08384,1.62212 -0.46886,0.46883 -1.00955,0.83012 -1.62212,1.08385 -0.61256,0.25374 -1.25037,0.38061 -1.91339,0.38062 -0.66307,-1e-5 -1.30089,-0.12688 -1.91345,-0.38062 -0.61257,-0.25373 -1.15328,-0.61502 -1.6221,-1.08385 -0.46886,-0.46884 -0.83016,-1.00955 -1.08388,-1.62212 C 241.12685,107.30083 240.99998,106.66303 241,106 c -2e-5,-0.66305 0.12685,-1.30087 0.38058,-1.91344 0.25371,-0.61256 0.61501,-1.15326 1.08387,-1.6221 0.46882,-0.46884 1.00953,-0.83013 1.6221,-1.08387 C 244.69911,101.12686 245.33693,101 246,101 c 0.66302,0 1.30083,0.12686 1.91339,0.38059 0.61257,0.25374 1.15326,0.61503 1.62212,1.08387 0.46882,0.46884 0.83011,1.00954 1.08384,1.6221 0.25374,0.61257 0.38063,1.25039 0.38065,1.91344 z"
             style="fill:#af77ee;fill-opacity:1;fill-rule:nonzero;stroke:none"
             id="path42" />
          <path
             d="m 171,176 c -2e-5,0.66304 -0.12688,1.30084 -0.38062,1.91341 -0.25373,0.61256 -0.61503,1.15327 -1.08386,1.62211 -0.46885,0.46883 -1.00956,0.83011 -1.62213,1.08385 -0.61256,0.25374 -1.25037,0.38061 -1.91339,0.38063 -0.66305,-2e-5 -1.30087,-0.12689 -1.91344,-0.38063 -0.61256,-0.25374 -1.15327,-0.61502 -1.62211,-1.08385 -0.46885,-0.46884 -0.83014,-1.00955 -1.08388,-1.62211 C 161.12685,177.30084 160.99998,176.66304 161,176 c -2e-5,-0.66304 0.12685,-1.30086 0.38057,-1.91344 0.25374,-0.61258 0.61503,-1.15329 1.08388,-1.62211 0.46884,-0.46884 1.00955,-0.83013 1.62211,-1.08387 C 164.69913,171.12686 165.33695,171 166,171 c 0.66302,0 1.30083,0.12686 1.91339,0.38058 0.61257,0.25374 1.15328,0.61503 1.62213,1.08387 0.46883,0.46882 0.83013,1.00953 1.08386,1.62211 0.25374,0.61258 0.3806,1.2504 0.38062,1.91344 z"
             style="fill:#af77ee;fill-opacity:1;fill-rule:nonzero;stroke:none"
             id="path44" />
          <path
             d="m 271,206 c -3e-5,0.66304 -0.12689,1.30083 -0.38065,1.91339 -0.25372,0.61257 -0.61502,1.15328 -1.08386,1.62213 -0.46884,0.46883 -1.00955,0.83011 -1.6221,1.08385 -0.61258,0.25374 -1.25037,0.38061 -1.91339,0.38063 -0.66306,-2e-5 -1.30084,-0.12689 -1.91342,-0.38063 -0.61258,-0.25374 -1.15329,-0.61502 -1.62213,-1.08385 -0.46884,-0.46885 -0.83014,-1.00956 -1.0839,-1.62213 C 261.12683,207.30083 260.99997,206.66304 261,206 c -3e-5,-0.66306 0.12683,-1.30087 0.38055,-1.91344 0.25376,-0.61256 0.61506,-1.15327 1.0839,-1.6221 0.46884,-0.46885 1.00952,-0.83014 1.6221,-1.08386 C 264.69913,201.12686 265.33694,201 266,201 c 0.66302,0 1.30081,0.12686 1.91339,0.3806 0.61255,0.25372 1.15326,0.61501 1.6221,1.08386 0.46884,0.46883 0.83014,1.00954 1.08386,1.6221 0.25376,0.61257 0.38062,1.25038 0.38065,1.91344 z"
             style="fill:#af77ee;fill-opacity:1;fill-rule:nonzero;stroke:none"
             id="path46" />
          <path
             d="m 221,246 c -2e-5,0.66302 -0.12689,1.30083 -0.38063,1.91339 -0.25374,0.61257 -0.61502,1.15326 -1.08385,1.62212 -0.46885,0.46882 -1.00956,0.83011 -1.62213,1.08384 -0.61256,0.25374 -1.25037,0.38063 -1.91339,0.38065 -0.66307,-2e-5 -1.30089,-0.12691 -1.91345,-0.38065 -0.61257,-0.25373 -1.15328,-0.61502 -1.6221,-1.08384 -0.46886,-0.46886 -0.83014,-1.00955 -1.08388,-1.62212 C 211.12683,247.30083 210.99998,246.66302 211,246 c -2e-5,-0.66307 0.12683,-1.30089 0.38057,-1.91345 0.25374,-0.61257 0.61502,-1.15328 1.08388,-1.6221 0.46882,-0.46886 1.00953,-0.83014 1.6221,-1.08387 C 214.69911,241.12686 215.33693,241 216,241 c 0.66302,0 1.30083,0.12686 1.91339,0.38058 0.61257,0.25373 1.15328,0.61501 1.62213,1.08387 0.46883,0.46882 0.83011,1.00953 1.08385,1.6221 0.25374,0.61256 0.38061,1.25038 0.38063,1.91345 z"
             style="fill:#af77ee;fill-opacity:1;fill-rule:nonzero;stroke:none"
             id="path48" />
          <path
             d="m 161,266 c -2e-5,0.66302 -0.12688,1.30081 -0.38062,1.91339 -0.25373,0.61255 -0.61503,1.15326 -1.08386,1.6221 -0.46885,0.46884 -1.00957,0.83014 -1.62213,1.08386 -0.61256,0.25376 -1.25037,0.38062 -1.91339,0.38065 -0.66304,-3e-5 -1.30086,-0.12689 -1.91342,-0.38065 -0.61257,-0.25372 -1.15328,-0.61502 -1.62212,-1.08386 -0.46886,-0.46884 -0.83014,-1.00955 -1.08388,-1.6221 C 151.12685,267.30081 150.99998,266.66302 151,266 c -2e-5,-0.66306 0.12685,-1.30084 0.38058,-1.91342 0.25374,-0.61258 0.61502,-1.15329 1.08388,-1.62213 0.46884,-0.46884 1.00955,-0.83014 1.62212,-1.08387 C 154.69914,261.12686 155.33696,261 156,261 c 0.66302,0 1.30083,0.12686 1.91339,0.38058 0.61256,0.25373 1.15328,0.61503 1.62213,1.08387 0.46883,0.46884 0.83013,1.00952 1.08386,1.6221 0.25374,0.61258 0.3806,1.25039 0.38062,1.91345 z"
             style="fill:#af77ee;fill-opacity:1;fill-rule:nonzero;stroke:none"
             id="path50" />
          <path
             d="m 41,246 c -4e-6,0.66302 -0.126873,1.30083 -0.380611,1.91339 -0.253735,0.61257 -0.615021,1.15326 -1.083859,1.62212 -0.468841,0.46882 -1.009548,0.83011 -1.62212,1.08384 C 37.300842,250.87309 36.66304,250.99998 36,251 c -0.663044,-2e-5 -1.30085,-0.12691 -1.913422,-0.38065 -0.612568,-0.25373 -1.153274,-0.61502 -1.622112,-1.08384 -0.468843,-0.46886 -0.830133,-1.00955 -1.083866,-1.62212 C 31.126865,247.30083 30.999998,246.66302 31,246 c -2e-6,-0.66307 0.126865,-1.30089 0.3806,-1.91345 0.253733,-0.61257 0.615023,-1.15328 1.083866,-1.6221 0.468838,-0.46886 1.009544,-0.83014 1.622112,-1.08387 C 34.69915,241.12686 35.336956,241 36,241 c 0.66304,0 1.300842,0.12686 1.91341,0.38058 0.612572,0.25373 1.153279,0.61501 1.62212,1.08387 0.468838,0.46882 0.830124,1.00953 1.083859,1.6221 C 40.873127,244.69911 40.999996,245.33693 41,246 Z"
             style="fill:#af77ee;fill-opacity:1;fill-rule:nonzero;stroke:none"
             id="path52" />
          <path
             d="m 271,36 c -3e-5,0.66304 -0.12689,1.300842 -0.38065,1.91341 -0.25372,0.612572 -0.61502,1.153279 -1.08386,1.62212 -0.46884,0.468838 -1.00955,0.830124 -1.6221,1.083859 C 267.30081,40.873127 266.66302,40.999996 266,41 c -0.66306,-4e-6 -1.30084,-0.126873 -1.91342,-0.380611 -0.61258,-0.253735 -1.15329,-0.615021 -1.62213,-1.083859 -0.46884,-0.468841 -0.83014,-1.009548 -1.0839,-1.62212 C 261.12683,37.300842 260.99997,36.66304 261,36 c -3e-5,-0.663044 0.12683,-1.30085 0.38055,-1.913422 0.25376,-0.612568 0.61506,-1.153274 1.0839,-1.622112 0.46884,-0.468843 1.00952,-0.830131 1.6221,-1.083866 C 264.69913,31.126867 265.33694,31 266,31 c 0.66302,0 1.30081,0.126867 1.91339,0.3806 0.61255,0.253735 1.15326,0.615023 1.6221,1.083866 0.46884,0.468838 0.83014,1.009544 1.08386,1.622112 C 270.87311,34.69915 270.99997,35.336956 271,36 Z"
             style="fill:#af77ee;fill-opacity:1;fill-rule:nonzero;stroke:none"
             id="path54" />
          <path
             d="m 105,16 c -1e-5,0.66304 -0.12688,1.300846 -0.38062,1.913416 -0.25373,0.61257 -0.61502,1.153276 -1.08385,1.622118 -0.46885,0.46884 -1.00955,0.830128 -1.62212,1.08386 C 101.30083,20.873131 100.66303,20.999998 100,21 c -0.663048,-2e-6 -1.300858,-0.126869 -1.913429,-0.380606 -0.612572,-0.253732 -1.153275,-0.61502 -1.622116,-1.08386 -0.46885,-0.468842 -0.830132,-1.009548 -1.083863,-1.622118 C 95.126862,17.300846 94.999992,16.66304 95,16 c -8e-6,-0.663042 0.126862,-1.300848 0.380592,-1.913418 0.253731,-0.612571 0.615013,-1.153275 1.083863,-1.622116 0.468841,-0.468842 1.009544,-0.830131 1.622116,-1.083864 C 98.699142,11.126867 99.336952,11 100,11 c 0.66303,0 1.30083,0.126867 1.9134,0.380602 0.61257,0.253733 1.15328,0.615022 1.62213,1.083864 0.46883,0.468841 0.83012,1.009545 1.08385,1.622116 C 104.87312,14.699152 104.99999,15.336958 105,16 Z"
             style="fill:#af77ee;fill-opacity:1;fill-rule:nonzero;stroke:none"
             id="path56" />
          <path
             d="M 277.45999,277.45999 223.24001,251.32001"
             style="fill:none;stroke:#82b366;stroke-width:1;stroke-linecap:butt;stroke-linejoin:miter;stroke-miterlimit:10;stroke-dasharray:none;stroke-opacity:1"
             id="path58" />
          <path
             d="m 220.53999,250.02 4.47,-0.06 -1.76998,1.36 0.04,2.23999 -2.74001,-3.54 z"
             style="fill:#82b366;fill-opacity:1;fill-rule:nonzero;stroke:none"
             id="path60" />
          <path
             d="m 220.53999,250.02 4.47,-0.06 -1.76998,1.36 0.04,2.23999 -2.74001,-3.54 z"
             style="fill:none;stroke:#82b366;stroke-width:1;stroke-linecap:butt;stroke-linejoin:miter;stroke-miterlimit:10;stroke-dasharray:none;stroke-opacity:1"
             id="path62" />
          <path
             d="m 139,68 c 1e-5,1.473808 -0.0722,2.944061 -0.21668,4.410774 -0.14445,1.466706 -0.36045,2.922798 -0.64799,4.368279 -0.28752,1.445488 -0.6452,2.873405 -1.07301,4.283752 -0.42783,1.410347 -0.92374,2.796333 -1.48775,4.157944 -0.56401,1.361626 -1.19337,2.692322 -1.88811,3.992103 -0.69476,1.299775 -1.45154,2.562371 -2.27034,3.787796 -0.8188,1.225426 -1.69568,2.407776 -2.63064,3.547051 -0.93498,1.139267 -1.92354,2.229965 -2.96569,3.272102 -1.04213,1.042149 -2.13283,2.030699 -3.2721,2.965679 -1.13927,0.93497 -2.32162,1.81186 -3.54705,2.63066 -1.22542,0.8188 -2.48802,1.57557 -3.7878,2.27032 -1.29978,0.69475 -2.63048,1.32412 -3.9921,1.88811 -1.36161,0.56401 -2.74759,1.05993 -4.15794,1.48775 -1.41034,0.42782 -2.83825,0.7855 -4.28374,1.07302 -1.44549,0.28753 -2.90158,0.50352 -4.368286,0.64798 C 96.944061,112.92777 95.473808,113 94,113 c -1.473801,0 -2.944054,-0.0722 -4.410759,-0.21668 -1.466721,-0.14446 -2.922821,-0.36045 -4.368309,-0.64798 -1.445488,-0.28752 -2.873398,-0.6452 -4.283745,-1.07303 -1.410339,-0.42782 -2.796325,-0.92373 -4.157951,-1.48774 -1.361611,-0.56399 -2.692314,-1.19336 -3.992096,-1.88811 -1.299782,-0.69475 -2.562386,-1.45152 -3.787811,-2.27033 -1.225418,-0.81879 -2.407761,-1.69569 -3.547028,-2.63066 -1.139267,-0.93497 -2.229969,-1.92352 -3.27211,-2.965669 -1.042137,-1.042137 -2.030693,-2.132835 -2.965664,-3.272102 -0.934971,-1.139275 -1.811863,-2.321625 -2.630669,-3.547051 -0.818798,-1.225425 -1.575569,-2.488021 -2.270317,-3.787803 -0.694748,-1.299774 -1.324123,-2.63047 -1.888126,-3.992096 -0.563999,-1.361611 -1.05991,-2.747597 -1.487732,-4.157944 C 50.509861,79.652458 50.152184,78.224541 49.864655,76.779053 49.577133,75.333572 49.361145,73.87748 49.216686,72.410774 49.072227,70.944061 49,69.473808 49,68 c 0,-1.473808 0.07223,-2.944061 0.216686,-4.41077 0.144459,-1.46671 0.360447,-2.922806 0.647969,-4.368298 0.287529,-1.445484 0.645206,-2.873402 1.073028,-4.283745 0.427822,-1.410343 0.923733,-2.796322 1.487732,-4.157944 0.564003,-1.361614 1.193378,-2.692314 1.888126,-3.992095 0.694748,-1.299778 1.451523,-2.562382 2.270321,-3.787812 0.818806,-1.225422 1.695694,-2.407768 2.630665,-3.547031 0.934971,-1.139271 1.923527,-2.229973 2.965664,-3.27211 1.042141,-1.042137 2.132843,-2.030693 3.27211,-2.965664 1.139267,-0.934975 2.32161,-1.811863 3.547028,-2.630667 1.225425,-0.818802 2.488029,-1.575577 3.787811,-2.270323 1.299782,-0.694748 2.630485,-1.324123 3.992096,-1.888124 1.361626,-0.563999 2.747612,-1.05991 4.157951,-1.487732 1.410347,-0.427824 2.838257,-0.785498 4.283745,-1.073023 1.445488,-0.287523 2.901588,-0.503515 4.368301,-0.647974 C 91.055946,23.072231 92.526199,23.000002 94,23 c 1.473808,2e-6 2.944061,0.07223 4.410774,0.216688 1.466706,0.144457 2.922796,0.360449 4.368276,0.647972 1.44549,0.287527 2.87341,0.645201 4.28375,1.073025 1.41035,0.427822 2.79633,0.923733 4.15794,1.487732 1.36162,0.564001 2.69232,1.193376 3.9921,1.888124 1.29978,0.694746 2.56238,1.451521 3.7878,2.270323 1.22543,0.818804 2.40778,1.695692 3.54705,2.630667 1.13927,0.934971 2.22997,1.923527 3.2721,2.965664 1.04215,1.042137 2.0307,2.132839 2.96567,3.27211 0.93498,1.139263 1.81186,2.321609 2.63066,3.547031 0.8188,1.22543 1.57558,2.488034 2.27034,3.787812 0.69474,1.299781 1.3241,2.630481 1.88811,3.992095 0.56401,1.361622 1.05992,2.747601 1.48773,4.157944 0.42783,1.410343 0.78551,2.838261 1.07303,4.283745 0.28754,1.445492 0.50354,2.901588 0.64799,4.368298 C 138.92778,65.055939 139.00001,66.526192 139,68 Z"
             style="fill:#000000;fill-opacity:1;fill-rule:nonzero;stroke:none"
             id="path64" />
          <path
             d="m 139,68 c 1e-5,1.473808 -0.0722,2.944061 -0.21668,4.410774 -0.14445,1.466706 -0.36045,2.922798 -0.64799,4.368279 -0.28752,1.445488 -0.6452,2.873405 -1.07301,4.283752 -0.42783,1.410347 -0.92374,2.796333 -1.48775,4.157944 -0.56401,1.361626 -1.19337,2.692322 -1.88811,3.992103 -0.69476,1.299775 -1.45154,2.562371 -2.27034,3.787796 -0.8188,1.225426 -1.69568,2.407776 -2.63064,3.547051 -0.93498,1.139267 -1.92354,2.229965 -2.96569,3.272102 -1.04213,1.042149 -2.13283,2.030699 -3.2721,2.965679 -1.13927,0.93497 -2.32162,1.81186 -3.54705,2.63066 -1.22542,0.8188 -2.48802,1.57557 -3.7878,2.27032 -1.29978,0.69475 -2.63048,1.32412 -3.9921,1.88811 -1.36161,0.56401 -2.74759,1.05993 -4.15794,1.48775 -1.41034,0.42782 -2.83825,0.7855 -4.28374,1.07302 -1.44549,0.28753 -2.90158,0.50352 -4.368286,0.64798 C 96.944061,112.92777 95.473808,113 94,113 c -1.473801,0 -2.944054,-0.0722 -4.410759,-0.21668 -1.466721,-0.14446 -2.922821,-0.36045 -4.368309,-0.64798 -1.445488,-0.28752 -2.873398,-0.6452 -4.283745,-1.07303 -1.410339,-0.42782 -2.796325,-0.92373 -4.157951,-1.48774 -1.361611,-0.56399 -2.692314,-1.19336 -3.992096,-1.88811 -1.299782,-0.69475 -2.562386,-1.45152 -3.787811,-2.27033 -1.225418,-0.81879 -2.407761,-1.69569 -3.547028,-2.63066 -1.139267,-0.93497 -2.229969,-1.92352 -3.27211,-2.965669 -1.042137,-1.042137 -2.030693,-2.132835 -2.965664,-3.272102 -0.934971,-1.139275 -1.811863,-2.321625 -2.630669,-3.547051 -0.818798,-1.225425 -1.575569,-2.488021 -2.270317,-3.787803 -0.694748,-1.299774 -1.324123,-2.63047 -1.888126,-3.992096 -0.563999,-1.361611 -1.05991,-2.747597 -1.487732,-4.157944 C 50.509861,79.652458 50.152184,78.224541 49.864655,76.779053 49.577133,75.333572 49.361145,73.87748 49.216686,72.410774 49.072227,70.944061 49,69.473808 49,68 c 0,-1.473808 0.07223,-2.944061 0.216686,-4.41077 0.144459,-1.46671 0.360447,-2.922806 0.647969,-4.368298 0.287529,-1.445484 0.645206,-2.873402 1.073028,-4.283745 0.427822,-1.410343 0.923733,-2.796322 1.487732,-4.157944 0.564003,-1.361614 1.193378,-2.692314 1.888126,-3.992095 0.694748,-1.299778 1.451523,-2.562382 2.270321,-3.787812 0.818806,-1.225422 1.695694,-2.407768 2.630665,-3.547031 0.934971,-1.139271 1.923527,-2.229973 2.965664,-3.27211 1.042141,-1.042137 2.132843,-2.030693 3.27211,-2.965664 1.139267,-0.934975 2.32161,-1.811863 3.547028,-2.630667 1.225425,-0.818802 2.488029,-1.575577 3.787811,-2.270323 1.299782,-0.694748 2.630485,-1.324123 3.992096,-1.888124 1.361626,-0.563999 2.747612,-1.05991 4.157951,-1.487732 1.410347,-0.427824 2.838257,-0.785498 4.283745,-1.073023 1.445488,-0.287523 2.901588,-0.503515 4.368301,-0.647974 C 91.055946,23.072231 92.526199,23.000002 94,23 c 1.473808,2e-6 2.944061,0.07223 4.410774,0.216688 1.466706,0.144457 2.922796,0.360449 4.368276,0.647972 1.44549,0.287527 2.87341,0.645201 4.28375,1.073025 1.41035,0.427822 2.79633,0.923733 4.15794,1.487732 1.36162,0.564001 2.69232,1.193376 3.9921,1.888124 1.29978,0.694746 2.56238,1.451521 3.7878,2.270323 1.22543,0.818804 2.40778,1.695692 3.54705,2.630667 1.13927,0.934971 2.22997,1.923527 3.2721,2.965664 1.04215,1.042137 2.0307,2.132839 2.96567,3.27211 0.93498,1.139263 1.81186,2.321609 2.63066,3.547031 0.8188,1.22543 1.57558,2.488034 2.27034,3.787812 0.69474,1.299781 1.3241,2.630481 1.88811,3.992095 0.56401,1.361622 1.05992,2.747601 1.48773,4.157944 0.42783,1.410343 0.78551,2.838261 1.07303,4.283745 0.28754,1.445492 0.50354,2.901588 0.64799,4.368298 C 138.92778,65.055939 139.00001,66.526192 139,68 Z"
             style="fill:none;stroke:#000000;stroke-width:1;stroke-linecap:butt;stroke-linejoin:miter;stroke-miterlimit:10;stroke-dasharray:none;stroke-opacity:1"
             id="path66" />
          <path
             d="m 151,162 c 0,0.98256 -0.0481,1.96272 -0.14444,2.94052 -0.0963,0.97782 -0.24031,1.94855 -0.43201,2.91219 -0.19168,0.96365 -0.43013,1.91559 -0.71533,2.85582 -0.28523,0.94023 -0.61584,1.86421 -0.99184,2.77194 -0.37599,0.90776 -0.79557,1.79491 -1.25874,2.66144 -0.46316,0.86653 -0.96768,1.70825 -1.51356,2.52519 -0.54587,0.81695 -1.13047,1.60519 -1.75377,2.3647 -0.62331,0.75951 -1.28235,1.48665 -1.97711,2.1814 -0.69475,0.69476 -1.42188,1.35379 -2.1814,1.97709 -0.75951,0.62332 -1.54775,1.20792 -2.3647,1.75377 -0.81696,0.54587 -1.65869,1.05039 -2.52521,1.51357 -0.86652,0.46316 -1.75364,0.88273 -2.66141,1.25872 -0.90774,0.37603 -1.83172,0.70664 -2.77194,0.99184 -0.94023,0.28522 -1.89218,0.52367 -2.85583,0.71533 -0.96366,0.1917 -1.93439,0.3357 -2.9122,0.43201 C 122.96271,191.95184 121.98254,192 121,192 c -0.98254,0 -1.96271,-0.0482 -2.94051,-0.14447 -0.97781,-0.0963 -1.94854,-0.24031 -2.91221,-0.43201 -0.96366,-0.19166 -1.91561,-0.43011 -2.85584,-0.71533 -0.94022,-0.2852 -1.86421,-0.61581 -2.77196,-0.99184 -0.90774,-0.37599 -1.79487,-0.79556 -2.66139,-1.25872 -0.86653,-0.46318 -1.70826,-0.9677 -2.5252,-1.51357 -0.81695,-0.54585 -1.60518,-1.13045 -2.3647,-1.75375 -0.7595,-0.62331 -1.48664,-1.28235 -2.181401,-1.97711 -0.694756,-0.69475 -1.35379,-1.42189 -1.977104,-2.1814 -0.623314,-0.75951 -1.207909,-1.54775 -1.753777,-2.3647 -0.54586,-0.81694 -1.050377,-1.65866 -1.513542,-2.52519 -0.463165,-0.86653 -0.882751,-1.75368 -1.258766,-2.66144 -0.375992,-0.90773 -0.706597,-1.83171 -0.991821,-2.77194 -0.28521,-0.94023 -0.523659,-1.89217 -0.715348,-2.85582 -0.191681,-0.96364 -0.33567,-1.93437 -0.431976,-2.91219 C 91.048149,163.96272 91,162.98256 91,162 c 0,-0.98253 0.04815,-1.96271 0.144455,-2.94052 0.09631,-0.9778 0.240295,-1.94853 0.431976,-2.9122 0.191689,-0.96366 0.430138,-1.91559 0.715355,-2.85582 0.285217,-0.94023 0.615822,-1.86423 0.991814,-2.77198 0.376015,-0.90774 0.795601,-1.79487 1.258758,-2.66139 0.463166,-0.86651 0.967682,-1.70825 1.513543,-2.5252 0.545875,-0.81695 1.13047,-1.60518 1.753784,-2.36469 0.623314,-0.75951 1.282348,-1.48665 1.977104,-2.18141 0.694761,-0.69475 1.421901,-1.35379 2.181401,-1.9771 0.75952,-0.62332 1.54774,-1.20791 2.36469,-1.75378 0.81695,-0.54587 1.65868,-1.05039 2.5252,-1.51357 0.86652,-0.46315 1.75366,-0.88273 2.6614,-1.25874 0.90775,-0.37599 1.83174,-0.7066 2.77196,-0.99182 0.94023,-0.2852 1.89218,-0.52365 2.85584,-0.71533 0.96367,-0.19168 1.9344,-0.33568 2.91221,-0.432 C 119.03729,132.04816 120.01746,132 121,132 c 0.98254,0 1.96271,0.0482 2.94051,0.14445 0.97781,0.0963 1.94854,0.24032 2.9122,0.432 0.96365,0.19168 1.91558,0.43013 2.85582,0.71533 0.94023,0.28522 1.86421,0.61583 2.77195,0.99182 0.90777,0.37601 1.79489,0.79559 2.66141,1.25874 0.86652,0.46318 1.70825,0.9677 2.52521,1.51355 0.81695,0.54589 1.60519,1.13048 2.3647,1.7538 0.75952,0.62331 1.48665,1.28235 2.1814,1.9771 0.69476,0.69476 1.3538,1.4219 1.97711,2.18141 0.6233,0.75951 1.2079,1.54773 1.75377,2.36467 0.54588,0.81697 1.0504,1.65871 1.51355,2.52522 0.46318,0.86652 0.88276,1.75365 1.25875,2.66139 0.376,0.90775 0.70661,1.83175 0.99183,2.77198 0.28521,0.94023 0.52366,1.89216 0.71534,2.85582 0.1917,0.96367 0.3357,1.9344 0.43201,2.9122 C 150.95186,160.03729 151,161.01747 151,162 Z"
             style="fill:#000000;fill-opacity:1;fill-rule:nonzero;stroke:none"
             id="path68" />
          <path
             d="m 151,162 c 0,0.98256 -0.0481,1.96272 -0.14444,2.94052 -0.0963,0.97782 -0.24031,1.94855 -0.43201,2.91219 -0.19168,0.96365 -0.43013,1.91559 -0.71533,2.85582 -0.28523,0.94023 -0.61584,1.86421 -0.99184,2.77194 -0.37599,0.90776 -0.79557,1.79491 -1.25874,2.66144 -0.46316,0.86653 -0.96768,1.70825 -1.51356,2.52519 -0.54587,0.81695 -1.13047,1.60519 -1.75377,2.3647 -0.62331,0.75951 -1.28235,1.48665 -1.97711,2.1814 -0.69475,0.69476 -1.42188,1.35379 -2.1814,1.97709 -0.75951,0.62332 -1.54775,1.20792 -2.3647,1.75377 -0.81696,0.54587 -1.65869,1.05039 -2.52521,1.51357 -0.86652,0.46316 -1.75364,0.88273 -2.66141,1.25872 -0.90774,0.37603 -1.83172,0.70664 -2.77194,0.99184 -0.94023,0.28522 -1.89218,0.52367 -2.85583,0.71533 -0.96366,0.1917 -1.93439,0.3357 -2.9122,0.43201 C 122.96271,191.95184 121.98254,192 121,192 c -0.98254,0 -1.96271,-0.0482 -2.94051,-0.14447 -0.97781,-0.0963 -1.94854,-0.24031 -2.91221,-0.43201 -0.96366,-0.19166 -1.91561,-0.43011 -2.85584,-0.71533 -0.94022,-0.2852 -1.86421,-0.61581 -2.77196,-0.99184 -0.90774,-0.37599 -1.79487,-0.79556 -2.66139,-1.25872 -0.86653,-0.46318 -1.70826,-0.9677 -2.5252,-1.51357 -0.81695,-0.54585 -1.60518,-1.13045 -2.3647,-1.75375 -0.7595,-0.62331 -1.48664,-1.28235 -2.181401,-1.97711 -0.694756,-0.69475 -1.35379,-1.42189 -1.977104,-2.1814 -0.623314,-0.75951 -1.207909,-1.54775 -1.753777,-2.3647 -0.54586,-0.81694 -1.050377,-1.65866 -1.513542,-2.52519 -0.463165,-0.86653 -0.882751,-1.75368 -1.258766,-2.66144 -0.375992,-0.90773 -0.706597,-1.83171 -0.991821,-2.77194 -0.28521,-0.94023 -0.523659,-1.89217 -0.715348,-2.85582 -0.191681,-0.96364 -0.33567,-1.93437 -0.431976,-2.91219 C 91.048149,163.96272 91,162.98256 91,162 c 0,-0.98253 0.04815,-1.96271 0.144455,-2.94052 0.09631,-0.9778 0.240295,-1.94853 0.431976,-2.9122 0.191689,-0.96366 0.430138,-1.91559 0.715355,-2.85582 0.285217,-0.94023 0.615822,-1.86423 0.991814,-2.77198 0.376015,-0.90774 0.795601,-1.79487 1.258758,-2.66139 0.463166,-0.86651 0.967682,-1.70825 1.513543,-2.5252 0.545875,-0.81695 1.13047,-1.60518 1.753784,-2.36469 0.623314,-0.75951 1.282348,-1.48665 1.977104,-2.18141 0.694761,-0.69475 1.421901,-1.35379 2.181401,-1.9771 0.75952,-0.62332 1.54774,-1.20791 2.36469,-1.75378 0.81695,-0.54587 1.65868,-1.05039 2.5252,-1.51357 0.86652,-0.46315 1.75366,-0.88273 2.6614,-1.25874 0.90775,-0.37599 1.83174,-0.7066 2.77196,-0.99182 0.94023,-0.2852 1.89218,-0.52365 2.85584,-0.71533 0.96367,-0.19168 1.9344,-0.33568 2.91221,-0.432 C 119.03729,132.04816 120.01746,132 121,132 c 0.98254,0 1.96271,0.0482 2.94051,0.14445 0.97781,0.0963 1.94854,0.24032 2.9122,0.432 0.96365,0.19168 1.91558,0.43013 2.85582,0.71533 0.94023,0.28522 1.86421,0.61583 2.77195,0.99182 0.90777,0.37601 1.79489,0.79559 2.66141,1.25874 0.86652,0.46318 1.70825,0.9677 2.52521,1.51355 0.81695,0.54589 1.60519,1.13048 2.3647,1.7538 0.75952,0.62331 1.48665,1.28235 2.1814,1.9771 0.69476,0.69476 1.3538,1.4219 1.97711,2.18141 0.6233,0.75951 1.2079,1.54773 1.75377,2.36467 0.54588,0.81697 1.0504,1.65871 1.51355,2.52522 0.46318,0.86652 0.88276,1.75365 1.25875,2.66139 0.376,0.90775 0.70661,1.83175 0.99183,2.77198 0.28521,0.94023 0.52366,1.89216 0.71534,2.85582 0.1917,0.96367 0.3357,1.9344 0.43201,2.9122 C 150.95186,160.03729 151,161.01747 151,162 Z"
             style="fill:none;stroke:#000000;stroke-width:1;stroke-linecap:butt;stroke-linejoin:miter;stroke-miterlimit:10;stroke-dasharray:none;stroke-opacity:1"
             id="path70" />
          <path
             d="m 231,106 c 2e-5,1.14629 -0.0562,2.28983 -0.16853,3.4306 -0.11235,1.14077 -0.28035,2.2733 -0.504,3.39756 -0.22362,1.12427 -0.5018,2.23487 -0.83457,3.33181 -0.33274,1.09693 -0.71847,2.17492 -1.15715,3.23394 -0.43866,1.05905 -0.92816,2.09404 -1.4685,3.10497 -0.54036,1.01095 -1.12897,1.99297 -1.76582,2.94607 -0.63685,0.95311 -1.31887,1.87272 -2.04607,2.75882 -0.72719,0.88609 -1.49606,1.73442 -2.30663,2.54496 -0.81054,0.81057 -1.65886,1.57946 -2.54495,2.30664 -0.88611,0.72719 -1.80572,1.40921 -2.75883,2.04604 -0.95311,0.63686 -1.93514,1.22545 -2.94608,1.76581 -1.01094,0.54036 -2.04593,1.02987 -3.10498,1.46853 -1.05902,0.43868 -2.13701,0.82441 -3.23395,1.15715 -1.09692,0.33275 -2.20752,0.61094 -3.3318,0.83457 -1.12425,0.22363 -2.25677,0.39163 -3.39754,0.504 C 198.28984,140.94382 197.1463,141 196,141 c -1.14629,0 -2.28983,-0.0562 -3.4306,-0.16853 -1.14078,-0.11237 -2.2733,-0.28037 -3.39759,-0.504 -1.12425,-0.22363 -2.23484,-0.50182 -3.33178,-0.83457 -1.09694,-0.33274 -2.17495,-0.71847 -3.23398,-1.15715 -1.05904,-0.43866 -2.09401,-0.92817 -3.10495,-1.46853 -1.01094,-0.54036 -1.99297,-1.12895 -2.94608,-1.76581 -0.95311,-0.63683 -1.87271,-1.31885 -2.7588,-2.04604 -0.88609,-0.72718 -1.73442,-1.49607 -2.54497,-2.30664 -0.81055,-0.81054 -1.57942,-1.65887 -2.30661,-2.54496 -0.7272,-0.8861 -1.40924,-1.80571 -2.0461,-2.75882 -0.63685,-0.9531 -1.22544,-1.93512 -1.7658,-2.94606 -0.54035,-1.01094 -1.02987,-2.04593 -1.46854,-3.10498 -0.43866,-1.05902 -0.82437,-2.13701 -1.15712,-3.23394 -0.33275,-1.09694 -0.61095,-2.20754 -0.83458,-3.33181 -0.22362,-1.12426 -0.3916,-2.25679 -0.50395,-3.39756 C 161.05618,108.28983 161,107.14629 161,106 c 0,-1.14629 0.0562,-2.28982 0.16855,-3.43059 0.11235,-1.14078 0.28033,-2.27331 0.50395,-3.397581 0.22363,-1.12426 0.50183,-2.234863 0.83458,-3.331795 0.33275,-1.096931 0.71846,-2.174911 1.15712,-3.233955 0.43867,-1.059029 0.92819,-2.094017 1.46854,-3.104957 0.54036,-1.010949 1.12896,-1.992974 1.76582,-2.946084 0.63686,-0.953102 1.31889,-1.872703 2.04608,-2.758804 0.72719,-0.886101 1.49606,-1.734421 2.30661,-2.544975 0.81055,-0.810547 1.65888,-1.579422 2.54497,-2.306618 0.88609,-0.727211 1.80569,-1.409233 2.7588,-2.046081 0.95311,-0.636849 1.93514,-1.225449 2.94608,-1.765801 1.01094,-0.540359 2.04591,-1.029877 3.10495,-1.468544 1.05903,-0.438667 2.13702,-0.824371 3.23396,-1.15712 1.09694,-0.332756 2.20755,-0.610946 3.3318,-0.834579 1.12429,-0.223625 2.25681,-0.391617 3.39759,-0.503975 C 193.71017,71.056183 194.85371,71 196,71 c 1.1463,0 2.28984,0.05618 3.4306,0.168541 1.14077,0.112358 2.27329,0.28035 3.39756,0.503975 1.12428,0.223633 2.23487,0.501823 3.33178,0.834579 1.09694,0.332749 2.17493,0.718453 3.23395,1.15712 1.05905,0.438667 2.09404,0.928185 3.10498,1.468544 1.01094,0.540352 1.99297,1.128952 2.94606,1.765801 0.95313,0.636848 1.87274,1.31887 2.75884,2.046081 0.88609,0.727196 1.73442,1.496071 2.54496,2.306618 0.81057,0.810554 1.57944,1.658882 2.30664,2.544983 0.72719,0.886093 1.40921,1.805694 2.04606,2.758796 0.63685,0.95311 1.22544,1.935135 1.7658,2.946084 0.54036,1.01094 1.02986,2.045928 1.46852,3.104957 0.43868,1.059044 0.82441,2.137024 1.15715,3.233955 0.33275,1.096932 0.61094,2.207535 0.83455,3.331795 0.22365,1.124271 0.39167,2.256801 0.50402,3.397581 0.11236,1.14077 0.16855,2.2843 0.16853,3.43059 z"
             style="fill:#000000;fill-opacity:1;fill-rule:nonzero;stroke:none"
             id="path72" />
          <path
             d="m 231,106 c 2e-5,1.14629 -0.0562,2.28983 -0.16853,3.4306 -0.11235,1.14077 -0.28035,2.2733 -0.504,3.39756 -0.22362,1.12427 -0.5018,2.23487 -0.83457,3.33181 -0.33274,1.09693 -0.71847,2.17492 -1.15715,3.23394 -0.43866,1.05905 -0.92816,2.09404 -1.4685,3.10497 -0.54036,1.01095 -1.12897,1.99297 -1.76582,2.94607 -0.63685,0.95311 -1.31887,1.87272 -2.04607,2.75882 -0.72719,0.88609 -1.49606,1.73442 -2.30663,2.54496 -0.81054,0.81057 -1.65886,1.57946 -2.54495,2.30664 -0.88611,0.72719 -1.80572,1.40921 -2.75883,2.04604 -0.95311,0.63686 -1.93514,1.22545 -2.94608,1.76581 -1.01094,0.54036 -2.04593,1.02987 -3.10498,1.46853 -1.05902,0.43868 -2.13701,0.82441 -3.23395,1.15715 -1.09692,0.33275 -2.20752,0.61094 -3.3318,0.83457 -1.12425,0.22363 -2.25677,0.39163 -3.39754,0.504 C 198.28984,140.94382 197.1463,141 196,141 c -1.14629,0 -2.28983,-0.0562 -3.4306,-0.16853 -1.14078,-0.11237 -2.2733,-0.28037 -3.39759,-0.504 -1.12425,-0.22363 -2.23484,-0.50182 -3.33178,-0.83457 -1.09694,-0.33274 -2.17495,-0.71847 -3.23398,-1.15715 -1.05904,-0.43866 -2.09401,-0.92817 -3.10495,-1.46853 -1.01094,-0.54036 -1.99297,-1.12895 -2.94608,-1.76581 -0.95311,-0.63683 -1.87271,-1.31885 -2.7588,-2.04604 -0.88609,-0.72718 -1.73442,-1.49607 -2.54497,-2.30664 -0.81055,-0.81054 -1.57942,-1.65887 -2.30661,-2.54496 -0.7272,-0.8861 -1.40924,-1.80571 -2.0461,-2.75882 -0.63685,-0.9531 -1.22544,-1.93512 -1.7658,-2.94606 -0.54035,-1.01094 -1.02987,-2.04593 -1.46854,-3.10498 -0.43866,-1.05902 -0.82437,-2.13701 -1.15712,-3.23394 -0.33275,-1.09694 -0.61095,-2.20754 -0.83458,-3.33181 -0.22362,-1.12426 -0.3916,-2.25679 -0.50395,-3.39756 C 161.05618,108.28983 161,107.14629 161,106 c 0,-1.14629 0.0562,-2.28982 0.16855,-3.43059 0.11235,-1.14078 0.28033,-2.27331 0.50395,-3.397581 0.22363,-1.12426 0.50183,-2.234863 0.83458,-3.331795 0.33275,-1.096931 0.71846,-2.174911 1.15712,-3.233955 0.43867,-1.059029 0.92819,-2.094017 1.46854,-3.104957 0.54036,-1.010949 1.12896,-1.992974 1.76582,-2.946084 0.63686,-0.953102 1.31889,-1.872703 2.04608,-2.758804 0.72719,-0.886101 1.49606,-1.734421 2.30661,-2.544975 0.81055,-0.810547 1.65888,-1.579422 2.54497,-2.306618 0.88609,-0.727211 1.80569,-1.409233 2.7588,-2.046081 0.95311,-0.636849 1.93514,-1.225449 2.94608,-1.765801 1.01094,-0.540359 2.04591,-1.029877 3.10495,-1.468544 1.05903,-0.438667 2.13702,-0.824371 3.23396,-1.15712 1.09694,-0.332756 2.20755,-0.610946 3.3318,-0.834579 1.12429,-0.223625 2.25681,-0.391617 3.39759,-0.503975 C 193.71017,71.056183 194.85371,71 196,71 c 1.1463,0 2.28984,0.05618 3.4306,0.168541 1.14077,0.112358 2.27329,0.28035 3.39756,0.503975 1.12428,0.223633 2.23487,0.501823 3.33178,0.834579 1.09694,0.332749 2.17493,0.718453 3.23395,1.15712 1.05905,0.438667 2.09404,0.928185 3.10498,1.468544 1.01094,0.540352 1.99297,1.128952 2.94606,1.765801 0.95313,0.636848 1.87274,1.31887 2.75884,2.046081 0.88609,0.727196 1.73442,1.496071 2.54496,2.306618 0.81057,0.810554 1.57944,1.658882 2.30664,2.544983 0.72719,0.886093 1.40921,1.805694 2.04606,2.758796 0.63685,0.95311 1.22544,1.935135 1.7658,2.946084 0.54036,1.01094 1.02986,2.045928 1.46852,3.104957 0.43868,1.059044 0.82441,2.137024 1.15715,3.233955 0.33275,1.096932 0.61094,2.207535 0.83455,3.331795 0.22365,1.124271 0.39167,2.256801 0.50402,3.397581 0.11236,1.14077 0.16855,2.2843 0.16853,3.43059 z"
             style="fill:none;stroke:#000000;stroke-width:1;stroke-linecap:butt;stroke-linejoin:miter;stroke-miterlimit:10;stroke-dasharray:none;stroke-opacity:1"
             id="path74" />
          <path
             d="m 211,173 c -2e-5,0.98491 -0.0961,1.96036 -0.28824,2.92635 -0.19215,0.96598 -0.4767,1.90394 -0.85361,2.81388 -0.3769,0.90993 -0.83895,1.77436 -1.38613,2.59328 -0.5472,0.81894 -1.16901,1.57663 -1.86544,2.27307 -0.69645,0.69643 -1.45413,1.31824 -2.27305,1.86544 -0.81894,0.54719 -1.68338,1.00924 -2.59331,1.38615 -0.90994,0.37691 -1.8479,0.66144 -2.81389,0.85358 -0.96599,0.19215 -1.94142,0.28823 -2.92633,0.28825 -0.98491,-2e-5 -1.96037,-0.0961 -2.92636,-0.28825 -0.96599,-0.19216 -1.90396,-0.47669 -2.8139,-0.8536 -0.90995,-0.3769 -1.77439,-0.83894 -2.59331,-1.38613 -0.81893,-0.5472 -1.57662,-1.16901 -2.27304,-1.86544 -0.69646,-0.69644 -1.31827,-1.45413 -1.86547,-2.27307 -0.54719,-0.81892 -1.00923,-1.68335 -1.38614,-2.59328 -0.37692,-0.90994 -0.66145,-1.8479 -0.85357,-2.81388 C 181.09605,174.96036 180.99998,173.98491 181,173 c -2e-5,-0.98492 0.096,-1.96039 0.28819,-2.92638 0.19214,-0.96598 0.47667,-1.90394 0.85358,-2.81389 0.37691,-0.90992 0.83896,-1.77436 1.38615,-2.5933 0.5472,-0.81893 1.16901,-1.5766 1.86547,-2.27304 0.69642,-0.69646 1.45411,-1.31827 2.27305,-1.86545 0.81893,-0.5472 1.68335,-1.00923 2.5933,-1.38614 0.90994,-0.37691 1.84791,-0.66144 2.8139,-0.85359 C 194.03963,158.09607 195.01509,158 196,158 c 0.98491,0 1.96034,0.0961 2.92633,0.28821 0.96599,0.19215 1.90395,0.47668 2.81389,0.85359 0.90993,0.37691 1.77437,0.83894 2.59329,1.38614 0.81893,0.54718 1.57662,1.16899 2.27307,1.86545 0.69643,0.69644 1.31824,1.45413 1.86544,2.27305 0.54718,0.81893 1.00923,1.68337 1.38613,2.59329 0.37691,0.90995 0.66146,1.84791 0.85361,2.81389 0.19216,0.96599 0.28822,1.94146 0.28824,2.92638 z"
             style="fill:#000000;fill-opacity:1;fill-rule:nonzero;stroke:none"
             id="path76" />
          <path
             d="m 211,173 c -2e-5,0.98491 -0.0961,1.96036 -0.28824,2.92635 -0.19215,0.96598 -0.4767,1.90394 -0.85361,2.81388 -0.3769,0.90993 -0.83895,1.77436 -1.38613,2.59328 -0.5472,0.81894 -1.16901,1.57663 -1.86544,2.27307 -0.69645,0.69643 -1.45413,1.31824 -2.27305,1.86544 -0.81894,0.54719 -1.68338,1.00924 -2.59331,1.38615 -0.90994,0.37691 -1.8479,0.66144 -2.81389,0.85358 -0.96599,0.19215 -1.94142,0.28823 -2.92633,0.28825 -0.98491,-2e-5 -1.96037,-0.0961 -2.92636,-0.28825 -0.96599,-0.19216 -1.90396,-0.47669 -2.8139,-0.8536 -0.90995,-0.3769 -1.77439,-0.83894 -2.59331,-1.38613 -0.81893,-0.5472 -1.57662,-1.16901 -2.27304,-1.86544 -0.69646,-0.69644 -1.31827,-1.45413 -1.86547,-2.27307 -0.54719,-0.81892 -1.00923,-1.68335 -1.38614,-2.59328 -0.37692,-0.90994 -0.66145,-1.8479 -0.85357,-2.81388 C 181.09605,174.96036 180.99998,173.98491 181,173 c -2e-5,-0.98492 0.096,-1.96039 0.28819,-2.92638 0.19214,-0.96598 0.47667,-1.90394 0.85358,-2.81389 0.37691,-0.90992 0.83896,-1.77436 1.38615,-2.5933 0.5472,-0.81893 1.16901,-1.5766 1.86547,-2.27304 0.69642,-0.69646 1.45411,-1.31827 2.27305,-1.86545 0.81893,-0.5472 1.68335,-1.00923 2.5933,-1.38614 0.90994,-0.37691 1.84791,-0.66144 2.8139,-0.85359 C 194.03963,158.09607 195.01509,158 196,158 c 0.98491,0 1.96034,0.0961 2.92633,0.28821 0.96599,0.19215 1.90395,0.47668 2.81389,0.85359 0.90993,0.37691 1.77437,0.83894 2.59329,1.38614 0.81893,0.54718 1.57662,1.16899 2.27307,1.86545 0.69643,0.69644 1.31824,1.45413 1.86544,2.27305 0.54718,0.81893 1.00923,1.68337 1.38613,2.59329 0.37691,0.90995 0.66146,1.84791 0.85361,2.81389 0.19216,0.96599 0.28822,1.94146 0.28824,2.92638 z"
             style="fill:none;stroke:#000000;stroke-width:1;stroke-linecap:butt;stroke-linejoin:miter;stroke-miterlimit:10;stroke-dasharray:none;stroke-opacity:1"
             id="path78" />
          <path
             d="m 219.53999,242.46001 39.66002,-30.42002"
             style="fill:none;stroke:#82b366;stroke-width:1;stroke-linecap:butt;stroke-linejoin:miter;stroke-miterlimit:10;stroke-dasharray:none;stroke-opacity:1"
             id="path80" />
          <path
             d="M 261.57999,210.22 259.62,214.24001 259.20001,212.03999 257.19,211.06 Z"
             style="fill:#82b366;fill-opacity:1;fill-rule:nonzero;stroke:none"
             id="path82" />
          <path
             d="M 261.57999,210.22 259.62,214.24001 259.20001,212.03999 257.19,211.06 Z"
             style="fill:none;stroke:#82b366;stroke-width:1;stroke-linecap:butt;stroke-linejoin:miter;stroke-miterlimit:10;stroke-dasharray:none;stroke-opacity:1"
             id="path84" />
          <path
             d="M 262.45999,202.46001 232.03999,162.8"
             style="fill:none;stroke:#82b366;stroke-width:1;stroke-linecap:butt;stroke-linejoin:miter;stroke-miterlimit:10;stroke-dasharray:none;stroke-opacity:1"
             id="path86" />
          <path
             d="m 230.22,160.42 4.02001,1.96 -2.20002,0.42 -0.97999,2.01 z"
             style="fill:#82b366;fill-opacity:1;fill-rule:nonzero;stroke:none"
             id="path88" />
          <path
             d="m 230.22,160.42 4.02001,1.96 -2.20002,0.42 -0.97999,2.01 z"
             style="fill:none;stroke:#82b366;stroke-width:1;stroke-linecap:butt;stroke-linejoin:miter;stroke-miterlimit:10;stroke-dasharray:none;stroke-opacity:1"
             id="path90" />
          <path
             d="m 221,156 -13,-2 h -10 l -9,2 -7,5 -9.42999,8.67999"
             style="fill:none;stroke:#82b366;stroke-width:1;stroke-linecap:butt;stroke-linejoin:miter;stroke-miterlimit:10;stroke-dasharray:none;stroke-opacity:1"
             id="path92" />
          <path
             d="m 170.36,171.71001 1.59,-4.18001 0.62001,2.14999 2.08999,0.79001 z"
             style="fill:#82b366;fill-opacity:1;fill-rule:nonzero;stroke:none"
             id="path94" />
          <path
             d="m 170.36,171.71001 1.59,-4.18001 0.62001,2.14999 2.08999,0.79001 z"
             style="fill:none;stroke:#82b366;stroke-width:1;stroke-linecap:butt;stroke-linejoin:miter;stroke-miterlimit:10;stroke-dasharray:none;stroke-opacity:1"
             id="path96" />
          <path
             d="M 162.46001,172.46001 141.17,123.31"
             style="fill:none;stroke:#82b366;stroke-width:1;stroke-linecap:butt;stroke-linejoin:miter;stroke-miterlimit:10;stroke-dasharray:none;stroke-opacity:1"
             id="path98" />
          <path
             d="m 139.98,120.56 3.43,2.88 -2.24,-0.13 -1.44,1.72 z"
             style="fill:#82b366;fill-opacity:1;fill-rule:nonzero;stroke:none"
             id="path100" />
          <path
             d="m 139.98,120.56 3.43,2.88 -2.24,-0.13 -1.44,1.72 z"
             style="fill:none;stroke:#82b366;stroke-width:1;stroke-linecap:butt;stroke-linejoin:miter;stroke-miterlimit:10;stroke-dasharray:none;stroke-opacity:1"
             id="path102" />
          <path
             d="M 139.53999,112.46 146.99,82.989998"
             style="fill:none;stroke:#82b366;stroke-width:1;stroke-linecap:butt;stroke-linejoin:miter;stroke-miterlimit:10;stroke-dasharray:none;stroke-opacity:1"
             id="path104" />
          <path
             d="m 147.73,80.080002 0.94999,4.369995 -1.68999,-1.459999 -2.18,0.480003 z"
             style="fill:#82b366;fill-opacity:1;fill-rule:nonzero;stroke:none"
             id="path106" />
          <path
             d="m 147.73,80.080002 0.94999,4.369995 -1.68999,-1.459999 -2.18,0.480003 z"
             style="fill:none;stroke:#82b366;stroke-width:1;stroke-linecap:butt;stroke-linejoin:miter;stroke-miterlimit:10;stroke-dasharray:none;stroke-opacity:1"
             id="path108" />
          <path
             d="m 148,69 -5,-16 -4,-7 -4,-6 -6,-6 -6,-5 -14.66,-10.59"
             style="fill:none;stroke:#82b366;stroke-width:1;stroke-linecap:butt;stroke-linejoin:miter;stroke-miterlimit:10;stroke-dasharray:none;stroke-opacity:1"
             id="path110" />
          <path
             d="m 105.91,16.65 4.41,0.729999 -1.98,1.030001 -0.36,2.210001 z"
             style="fill:#82b366;fill-opacity:1;fill-rule:nonzero;stroke:none"
             id="path112" />
          <path
             d="m 105.91,16.65 4.41,0.729999 -1.98,1.030001 -0.36,2.210001 z"
             style="fill:none;stroke:#82b366;stroke-width:1;stroke-linecap:butt;stroke-linejoin:miter;stroke-miterlimit:10;stroke-dasharray:none;stroke-opacity:1"
             id="path114" />
          <path
             d="m 38.459999,58.459999 -15.509998,-28.83"
             style="fill:none;stroke:#82b366;stroke-width:1;stroke-linecap:butt;stroke-linejoin:miter;stroke-miterlimit:10;stroke-dasharray:none;stroke-opacity:1"
             id="path116" />
          <path
             d="m 21.530001,26.98 3.66,2.579999 -2.24,0.07 L 21.66,31.450001 Z"
             style="fill:#82b366;fill-opacity:1;fill-rule:nonzero;stroke:none"
             id="path118" />
          <path
             d="m 21.530001,26.98 3.66,2.579999 -2.24,0.07 L 21.66,31.450001 Z"
             style="fill:none;stroke:#82b366;stroke-width:1;stroke-linecap:butt;stroke-linejoin:miter;stroke-miterlimit:10;stroke-dasharray:none;stroke-opacity:1"
             id="path120" />
          <path
             d="M 95,16 79,21 65,28 52,41 44.18,53.509998"
             style="fill:none;stroke:#82b366;stroke-width:1;stroke-linecap:butt;stroke-linejoin:miter;stroke-miterlimit:10;stroke-dasharray:none;stroke-opacity:1"
             id="path122" />
          <path
             d="m 42.59,56.049999 0.43,-4.450001 1.16,1.91 2.23,0.210003 z"
             style="fill:#82b366;fill-opacity:1;fill-rule:nonzero;stroke:none"
             id="path124" />
          <path
             d="m 42.59,56.049999 0.43,-4.450001 1.16,1.91 2.23,0.210003 z"
             style="fill:none;stroke:#82b366;stroke-width:1;stroke-linecap:butt;stroke-linejoin:miter;stroke-miterlimit:10;stroke-dasharray:none;stroke-opacity:1"
             id="path126" />
          <path
             d="m 286,281 c -3e-5,0.66302 -0.12689,1.30081 -0.38062,1.91339 -0.25375,0.61258 -0.61502,1.15329 -1.08386,1.62213 -0.46884,0.46884 -1.00955,0.83011 -1.62213,1.08386 -0.61258,0.25373 -1.25037,0.38059 -1.91339,0.38062 -0.66306,-3e-5 -1.30087,-0.12689 -1.91345,-0.38062 -0.61258,-0.25375 -1.15326,-0.61502 -1.6221,-1.08386 -0.46884,-0.46884 -0.83014,-1.00955 -1.0839,-1.62213 C 276.12683,282.30081 275.99997,281.66302 276,281 c -3e-5,-0.66306 0.12683,-1.30087 0.38055,-1.91345 0.25376,-0.61258 0.61506,-1.15326 1.0839,-1.6221 0.46884,-0.46884 1.00952,-0.83014 1.6221,-1.0839 C 279.69913,276.12686 280.33694,276 281,276 c 0.66302,0 1.30081,0.12686 1.91339,0.38055 0.61258,0.25376 1.15329,0.61506 1.62213,1.0839 0.46884,0.46884 0.83011,1.00952 1.08386,1.6221 0.25373,0.61258 0.38059,1.25039 0.38062,1.91345 z"
             style="fill:#00ffff;fill-opacity:1;fill-rule:nonzero;stroke:none"
             id="path128" />
          <path
             d="m 26,21 c -2e-6,0.663038 -0.126871,1.300842 -0.380606,1.913412 -0.253736,0.61257 -0.615024,1.153275 -1.083864,1.622118 -0.468843,0.46884 -1.009548,0.830128 -1.622118,1.083862 C 22.300842,25.873129 21.663038,25.999998 21,26 20.336958,25.999998 19.699152,25.873129 19.086582,25.619394 18.474012,25.365658 17.933308,25.00437 17.464466,24.53553 16.995623,24.066687 16.634335,23.525982 16.3806,22.913412 16.126865,22.300842 15.999999,21.663038 16,21 c -10e-7,-0.663042 0.126865,-1.300848 0.3806,-1.913418 0.253735,-0.61257 0.615023,-1.153274 1.083866,-1.622116 0.468842,-0.468841 1.009546,-0.83013 1.622116,-1.083866 C 19.699152,16.126867 20.336958,16 21,16 c 0.663038,0 1.300842,0.126867 1.913412,0.380602 0.61257,0.253734 1.153275,0.615023 1.622118,1.083864 0.46884,0.468842 0.830128,1.009546 1.083862,1.622116 C 25.873129,19.699152 25.999998,20.336958 26,21 Z"
             style="fill:#ff0800;fill-opacity:1;fill-rule:nonzero;stroke:none"
             id="path130" />
        </g>
      </g>
    </g>
  </g>
</svg>
